<svg xmlns="http://www.w3.org/2000/svg" width="544.5" height="652.673" viewBox="0 0 544.5 652.673">
  <g id="_2_" data-name="2**" transform="translate(0.929 0.994)">
    <g id="Group_125" data-name="Group 125">
      <path id="Path_117" data-name="Path 117" d="M-592.737,1726.264c-2.473,2.475-2.762,2.6-6.262,2.6s-3.5-1.022-7-1.022-3.5.176-6.995.176-3.5-2.811-7-2.811-3.5,1.535-7,1.535-3.5,1.467-7,1.467-3.5-1.375-7-1.375-3.5,1.056-7,1.056-3.5,1.387-7,1.387-3.5-3.83-7.007-3.83-3.312,2.815-5.79.339-.631-2.281-.631-5.781-.539-3.5-.539-7-1.986-3.5-1.986-6.995,1.264-3.5,1.264-7,2.415-3.5,2.415-7-3.289-3.5-3.289-7,.151-3.5.151-7-.921-3.5-.921-7,4.544-3.5,4.544-7-4.259-3.5-4.259-7.007-1.333-5.418,1.143-7.9,4.39,2.938,7.89,2.938,3.5-3.854,7-3.854,3.5,4.1,6.995,4.1,3.5-.063,7-.063,3.5-2.461,7-2.461,3.5,1.029,7,1.029,3.5-1.133,7-1.133,3.5,1.323,7,1.323,3.5,1.09,7,1.09,3.5-4.09,7.007-4.09,4.408-.343,6.887,2.133-.365,3.378-.365,6.878.561,3.5.561,7,1.9,3.5,1.9,6.995-2.389,3.5-2.389,7,.866,3.5.866,7-2.357,3.5-2.357,7-.125,3.5-.125,7,1.512,3.5,1.512,7,1.53,3.5,1.53,7-.307,3.345.25,6.8C-590.2,1723.1-590.261,1723.785-592.737,1726.264Z" transform="translate(671.392 -1647.972)" fill="blue"/>
      <path id="Path_118" data-name="Path 118" d="M-592.737,1726.264c-2.473,2.475-2.762,2.6-6.262,2.6s-3.5-1.022-7-1.022-3.5.176-6.995.176-3.5-2.811-7-2.811-3.5,1.535-7,1.535-3.5,1.467-7,1.467-3.5-1.375-7-1.375-3.5,1.056-7,1.056-3.5,1.387-7,1.387-3.5-3.83-7.007-3.83-3.312,2.815-5.79.339-.631-2.281-.631-5.781-.539-3.5-.539-7-1.986-3.5-1.986-6.995,1.264-3.5,1.264-7,2.415-3.5,2.415-7-3.289-3.5-3.289-7,.151-3.5.151-7-.921-3.5-.921-7,4.544-3.5,4.544-7-4.259-3.5-4.259-7.007-1.333-5.418,1.143-7.9,4.39,2.938,7.89,2.938,3.5-3.854,7-3.854,3.5,4.1,6.995,4.1,3.5-.063,7-.063,3.5-2.461,7-2.461,3.5,1.029,7,1.029,3.5-1.133,7-1.133,3.5,1.323,7,1.323,3.5,1.09,7,1.09,3.5-4.09,7.007-4.09,4.408-.343,6.887,2.133-.365,3.378-.365,6.878.561,3.5.561,7,1.9,3.5,1.9,6.995-2.389,3.5-2.389,7,.866,3.5.866,7-2.357,3.5-2.357,7-.125,3.5-.125,7,1.512,3.5,1.512,7,1.53,3.5,1.53,7-.307,3.345.25,6.8C-590.2,1723.1-590.261,1723.785-592.737,1726.264Z" transform="translate(671.392 -1647.972)" fill="none" stroke="blue" stroke-miterlimit="10" stroke-width="2"/>
    </g>
    <g id="Group_126" data-name="Group 126" transform="translate(209.763 523.928)">
      <path id="Path_119" data-name="Path 119" d="M-410.273,2306.718c-3.522,3.4-4.625-.281-9.523-.281s-4.9,2.214-9.8,2.214-4.9-4.49-9.8-4.49-4.9,3.844-9.8,3.844-5.47,1.564-9-1.84c-3.4-3.283,2.048-3.894,2.048-8.624s-4.192-4.729-4.192-9.459,2.618-4.73,2.618-9.46-1.828-4.731-1.828-9.462.112-4.73.112-9.46-2.118-4.73-2.118-9.461,4.65-4.729,4.65-9.458-4.724-4.729-4.724-9.459,5.255-4.73,5.255-9.461-2.738-4.732-2.738-9.464,2.132-4.731,2.132-9.461-3.174-4.734-3.174-9.468-1.734-5.644,1.67-8.934c3.522-3.4,4.382,1.424,9.28,1.424s4.9-2.856,9.8-2.856,4.9,1.679,9.8,1.679,4.9-2.881,9.8-2.881,4.557.478,8.084,3.881c3.4,3.284-1.238,2.948-1.238,7.678s-.116,4.729-.116,9.459.3,4.73.3,9.46,4.97,4.731,4.97,9.462-1.634,4.73-1.634,9.46-2.218,4.73-2.218,9.461.023,4.729.023,9.458-.817,4.729-.817,9.459,1.541,4.73,1.541,9.461-.874,4.732-.874,9.464,4.557,4.731,4.557,9.461-1.248,4.326-.3,8.965C-406.549,2301.845-406.869,2303.428-410.273,2306.718Z" transform="translate(461.629 -2181.9)" fill="blue"/>
      <path id="Path_120" data-name="Path 120" d="M-410.273,2306.718c-3.522,3.4-4.625-.281-9.523-.281s-4.9,2.214-9.8,2.214-4.9-4.49-9.8-4.49-4.9,3.844-9.8,3.844-5.47,1.564-9-1.84c-3.4-3.283,2.048-3.894,2.048-8.624s-4.192-4.729-4.192-9.459,2.618-4.73,2.618-9.46-1.828-4.731-1.828-9.462.112-4.73.112-9.46-2.118-4.73-2.118-9.461,4.65-4.729,4.65-9.458-4.724-4.729-4.724-9.459,5.255-4.73,5.255-9.461-2.738-4.732-2.738-9.464,2.132-4.731,2.132-9.461-3.174-4.734-3.174-9.468-1.734-5.644,1.67-8.934c3.522-3.4,4.382,1.424,9.28,1.424s4.9-2.856,9.8-2.856,4.9,1.679,9.8,1.679,4.9-2.881,9.8-2.881,4.557.478,8.084,3.881c3.4,3.284-1.238,2.948-1.238,7.678s-.116,4.729-.116,9.459.3,4.73.3,9.46,4.97,4.731,4.97,9.462-1.634,4.73-1.634,9.46-2.218,4.73-2.218,9.461.023,4.729.023,9.458-.817,4.729-.817,9.459,1.541,4.73,1.541,9.461-.874,4.732-.874,9.464,4.557,4.731,4.557,9.461-1.248,4.326-.3,8.965C-406.549,2301.845-406.869,2303.428-410.273,2306.718Z" transform="translate(461.629 -2181.9)" fill="none" stroke="blue" stroke-miterlimit="10" stroke-width="2"/>
    </g>
    <g id="Group_127" data-name="Group 127" transform="translate(450.903 198.499)">
      <path id="Path_121" data-name="Path 121" d="M-131.205,2054.794c-2.567,2.558-3.419,1.225-7.043,1.225s-3.624-1.167-7.249-1.167-3.625-.616-7.25-.616-3.622,1.619-7.245,1.619-3.624-1.9-7.248-1.9-3.624-.154-7.248-.154-3.624,3.088-7.248,3.088-3.625-.4-7.25-.4-3.627-2.853-7.253-2.853-3.625,1.726-7.25,1.726-3.628-.837-7.256-.837-4.444,2.794-7.017.238c-2.557-2.54-2.654-3.365-2.654-6.968s1.935-3.6,1.935-7.21.394-3.607.394-7.213-.082-3.6-.082-7.209-.4-3.6-.4-7.21-1.916-3.607-1.916-7.213,1.176-3.6,1.176-7.21-.332-3.607-.332-7.214,1.062-3.6,1.062-7.211.844-3.607.844-7.213-.789-3.606-.789-7.213,2.9-3.607,2.9-7.214-.654-3.607-.654-7.213-1.176-3.607-1.176-7.215,1.193-3.608,1.193-7.216-3.419-3.607-3.419-7.214,3.785-3.608,3.785-7.215-1.288-3.608-1.288-7.216.215-3.609.215-7.217-.261-3.606-.261-7.212-1.247-3.608-1.247-7.215.791-3.608.791-7.216.135-3.607.135-7.215-1.74-3.609-1.74-7.217,3.527-3.607,3.527-7.213-3.02-3.61-3.02-7.22,1.7-3.612,1.7-7.224-1.887-3.087.672-5.637,2.041-2.64,5.665-2.64,3.624,2.057,7.249,2.057,3.625-1.436,7.25-1.436,3.622.087,7.245.087,3.624-1.663,7.248-1.663,3.624,3.653,7.248,3.653,3.624-3.712,7.248-3.712,3.625,4.129,7.25,4.129,3.627-2.151,7.253-2.151,3.625,1.675,7.25,1.675,3.628-2.493,7.256-2.493,4.27-1.237,6.844,1.32c2.556,2.54-1.128,3.19-1.128,6.793s2.245,3.6,2.245,7.21-1.32,3.607-1.32,7.213,2.264,3.6,2.264,7.209-3.6,3.6-3.6,7.21-.379,3.607-.379,7.213-.091,3.6-.091,7.21.234,3.607.234,7.214,3.9,3.6,3.9,7.211-1.284,3.607-1.284,7.213-1.743,3.606-1.743,7.213.018,3.607.018,7.214-.642,3.607-.642,7.213,1.211,3.607,1.211,7.215-.687,3.608-.687,7.216,3.581,3.607,3.581,7.214-.2,3.608-.2,7.215-3.656,3.608-3.656,7.216-.51,3.609-.51,7.217.5,3.606.5,7.212,3.009,3.608,3.009,7.215-3.112,3.608-3.112,7.216,3.451,3.607,3.451,7.215-.98,3.609-.98,7.217,1.3,3.607,1.3,7.213-3.669,3.61-3.669,7.22,2.787,3.318,3.5,6.86C-128.447,2051.084-128.647,2052.244-131.205,2054.794Z" transform="translate(220.489 -1850.934)" fill="blue"/>
      <path id="Path_122" data-name="Path 122" d="M-131.205,2054.794c-2.567,2.558-3.419,1.225-7.043,1.225s-3.624-1.167-7.249-1.167-3.625-.616-7.25-.616-3.622,1.619-7.245,1.619-3.624-1.9-7.248-1.9-3.624-.154-7.248-.154-3.624,3.088-7.248,3.088-3.625-.4-7.25-.4-3.627-2.853-7.253-2.853-3.625,1.726-7.25,1.726-3.628-.837-7.256-.837-4.444,2.794-7.017.238c-2.557-2.54-2.654-3.365-2.654-6.968s1.935-3.6,1.935-7.21.394-3.607.394-7.213-.082-3.6-.082-7.209-.4-3.6-.4-7.21-1.916-3.607-1.916-7.213,1.176-3.6,1.176-7.21-.332-3.607-.332-7.214,1.062-3.6,1.062-7.211.844-3.607.844-7.213-.789-3.606-.789-7.213,2.9-3.607,2.9-7.214-.654-3.607-.654-7.213-1.176-3.607-1.176-7.215,1.193-3.608,1.193-7.216-3.419-3.607-3.419-7.214,3.785-3.608,3.785-7.215-1.288-3.608-1.288-7.216.215-3.609.215-7.217-.261-3.606-.261-7.212-1.247-3.608-1.247-7.215.791-3.608.791-7.216.135-3.607.135-7.215-1.74-3.609-1.74-7.217,3.527-3.607,3.527-7.213-3.02-3.61-3.02-7.22,1.7-3.612,1.7-7.224-1.887-3.087.672-5.637,2.041-2.64,5.665-2.64,3.624,2.057,7.249,2.057,3.625-1.436,7.25-1.436,3.622.087,7.245.087,3.624-1.663,7.248-1.663,3.624,3.653,7.248,3.653,3.624-3.712,7.248-3.712,3.625,4.129,7.25,4.129,3.627-2.151,7.253-2.151,3.625,1.675,7.25,1.675,3.628-2.493,7.256-2.493,4.27-1.237,6.844,1.32c2.556,2.54-1.128,3.19-1.128,6.793s2.245,3.6,2.245,7.21-1.32,3.607-1.32,7.213,2.264,3.6,2.264,7.209-3.6,3.6-3.6,7.21-.379,3.607-.379,7.213-.091,3.6-.091,7.21.234,3.607.234,7.214,3.9,3.6,3.9,7.211-1.284,3.607-1.284,7.213-1.743,3.606-1.743,7.213.018,3.607.018,7.214-.642,3.607-.642,7.213,1.211,3.607,1.211,7.215-.687,3.608-.687,7.216,3.581,3.607,3.581,7.214-.2,3.608-.2,7.215-3.656,3.608-3.656,7.216-.51,3.609-.51,7.217.5,3.606.5,7.212,3.009,3.608,3.009,7.215-3.112,3.608-3.112,7.216,3.451,3.607,3.451,7.215-.98,3.609-.98,7.217,1.3,3.607,1.3,7.213-3.669,3.61-3.669,7.22,2.787,3.318,3.5,6.86C-128.447,2051.084-128.647,2052.244-131.205,2054.794Z" transform="translate(220.489 -1850.934)" fill="none" stroke="blue" stroke-miterlimit="10" stroke-width="2"/>
    </g>
  </g>
</svg>
