<svg xmlns="http://www.w3.org/2000/svg" width="564.5" height="3755.524" viewBox="0 0 564.5 3755.524">
  <defs>
    <style>
      .cls-1 {
        fill: none;
        stroke: blue;
        stroke-miterlimit: 10;
        stroke-width: 2px;
      }
    </style>
  </defs>
  <g id="background" transform="translate(0.929 1)">
    <g id="Group_124" data-name="Group 124" transform="translate(686.392 -850.127)">
      <g id="Group_83" data-name="Group 83">
        <path id="Path_76" data-name="Path 76" class="cls-1" d="M-301.627,914.656c-3.106-3.053,2.245-6.011,2.245-10.366s-1.924-4.356-1.924-8.711,3.684-4.356,3.684-8.712-5.225-4.358-5.225-8.716,2.3-4.357,2.3-8.713,1.226-4.36,1.226-8.719-3.913-5.794-.807-8.853c3.154-3.106,4.558-.242,8.985-.242s4.428,2.916,8.855,2.916,4.427-1.541,8.854-1.541,4.427-2.44,8.855-2.44,4.429,1.071,8.857,1.071,4.428,1.239,8.856,1.239,4.428.527,8.856.527,4.429.278,8.857.278,4.429-1.837,8.858-1.837,4.429,1.87,8.857,1.87,4.428-3.58,8.856-3.58,4.428,3.385,8.855,3.385,4.428-.271,8.856-.271,4.429-2.778,8.858-2.778,4.431,2.241,8.862,2.241,4.429-.683,8.858-.683,4.432.185,8.864.185,4.914-2.509,8.076.6c3.106,3.053.717,3.552.717,7.907s.4,4.356.4,8.711-2.941,4.356-2.941,8.712,5.048,4.358,5.048,8.716-5.284,4.357-5.284,8.713,1.3,4.36,1.3,8.719,2.884,3.858-.222,6.917c-3.154,3.106-2.652,1.277-7.078,1.277s-4.428.852-8.855.852-4.427-2.487-8.854-2.487-4.427.595-8.855.595-4.429-1.049-8.857-1.049-4.428.394-8.856.394-4.428.734-8.856.734-4.429,3.1-8.857,3.1-4.429-1.782-8.858-1.782-4.429,1.177-8.857,1.177-4.428-2.967-8.856-2.967-4.428,1.4-8.856,1.4-4.427,2.45-8.855,2.45-4.429-2.244-8.858-2.244-4.431,1.57-8.862,1.57-4.429-1.4-8.858-1.4-4.87-1.951-9.123-.7C-296.827,913.72-298.465,917.762-301.627,914.656Z"/>
      </g>
      <g id="Group_84" data-name="Group 84">
        <path id="Path_77" data-name="Path 77" class="cls-1" d="M-522.939,1110.862c-5.624-5.775,4.031-10.923,4.031-18.984s-3.4-8.062-3.4-16.123,6.511-8.062,6.511-16.125-9.232-8.06-9.232-16.12,4.056-8.063,4.056-16.126,2.168-8.063,2.168-16.126-1.526-8.065-1.526-16.129-5.768-10.813-.145-16.593c5.471-5.623,8.323,4.953,16.168,4.953s7.847-2.724,15.694-2.724,7.846-4.311,15.692-4.311,7.845,1.893,15.691,1.893,7.847,2.189,15.694,2.189,7.848.932,15.7.932,7.847.49,15.693.49,7.848-3.246,15.695-3.246,7.848,3.305,15.7,3.305,7.848-6.327,15.7-6.327,7.846,5.982,15.693,5.982,7.849-.478,15.7-.478,7.85-4.91,15.7-4.91,7.851,3.961,15.7,3.961,10.2-6.844,15.675-1.22c5.624,5.775-.339,8.036-.339,16.1s-1.625,8.062-1.625,16.123,1.862,8.062,1.862,16.125.705,8.06.705,16.12-5.2,8.063-5.2,16.126,8.921,8.063,8.921,16.126-9.338,8.065-9.338,16.129,8.694,8.434,3.07,14.215c-5.471,5.623-5.878-2.556-13.723-2.556s-7.847,3.543-15.694,3.543-7.846,1.505-15.692,1.505-7.846-4.4-15.691-4.4-7.847,1.053-15.694,1.053-7.848-1.854-15.7-1.854-7.847.7-15.693.7-7.848,1.3-15.7,1.3-7.848,5.484-15.7,5.484-7.848-3.149-15.7-3.149-7.846,2.08-15.693,2.08-7.849-5.242-15.7-5.242-7.85,2.474-15.7,2.474-7.225,1.978-14.757,4.192C-513.01,1114.051-517.461,1116.486-522.939,1110.862Z"/>
      </g>
      <g id="Group_85" data-name="Group 85">
        <path id="Path_78" data-name="Path 78" class="cls-1" d="M-267.254,1414.745c-2.441,2.444-4.2-.151-7.654-.151s-3.454,1.652-6.908,1.652-3.453-1.955-6.9-1.955-3.453-2.337-6.907-2.337-3.453,4.2-6.907,4.2-3.454-3.952-6.907-3.952-3.455.272-6.909.272-3.453,3.151-6.906,3.151-3.455.3-6.911.3-3.458-3.993-6.916-3.993-3.116,3.158-5.563.714-1.873-2.1-1.873-5.553,1.737-3.454,1.737-6.908-2.084-3.453-2.084-6.9-.4-3.453-.4-6.907-.831-3.453-.831-6.907,2.7-3.454,2.7-6.907-2.764-3.455-2.764-6.909.971-3.453.971-6.906,3.255-3.455,3.255-6.911-2.481-3.458-2.481-6.916-2.88-5.327-.436-7.773,4.312-.428,7.766-.428,3.454.379,6.908.379,3.453,2.833,6.9,2.833,3.453-1.33,6.907-1.33,3.453.522,6.907.522,3.454-.662,6.907-.662,3.455-2.767,6.909-2.767,3.453,3.668,6.906,3.668,3.455-2.962,6.911-2.962,3.458-.7,6.916-.7,4.448-.118,6.895,2.325-.5,3.433-.5,6.887,2.721,3.454,2.721,6.908-.416,3.453-.416,6.9-2.782,3.453-2.782,6.907,1.225,3.453,1.225,6.907-.083,3.454-.083,6.907,1.476,3.455,1.476,6.909-3.34,3.453-3.34,6.906,2.79,3.455,2.79,6.911-1.156,3.364-.276,6.708C-266.164,1410.853-264.811,1412.3-267.254,1414.745Z"/>
      </g>
      <g id="Group_86" data-name="Group 86">
        <path id="Path_79" data-name="Path 79" class="cls-1" d="M-131.575,1507.423c-1.49,1.5-2.539-.085-4.653-.085s-2.113.94-4.225.94-2.115-1.113-4.23-1.113-2.114-1.329-4.227-1.329-2.115,2.387-4.229,2.387-2.116-2.249-4.231-2.249-2.115.156-4.231.156-2.115,1.792-4.231,1.792-2.115.173-4.23.173-2.115-2.272-4.23-2.272-2.117.087-4.234.087-2.119,1.386-4.237,1.386-2.251.715-3.747-.785-.984-1.635-.984-3.759-.23-2.124-.23-4.249-.473-2.124-.473-4.248,1.537-2.124,1.537-4.247-1.573-2.124-1.573-4.248.553-2.126.553-4.251,1.851-2.127,1.851-4.255-2.841-2.914-1.341-4.423,2.284-.521,4.4-.521,2.113-.041,4.225-.041,2.115.216,4.23.216,2.114,1.611,4.227,1.611,2.115-.756,4.229-.756,2.116.3,4.231.3,2.115-.377,4.231-.377,2.115-1.575,4.231-1.575,2.115,2.087,4.23,2.087,2.115-1.684,4.23-1.684,2.117-.4,4.234-.4,2.119,1.328,4.237,1.328,2.53-1.306,4.026.194,1.461,1.913,1.461,4.037-.237,2.124-.237,4.249-1.583,2.124-1.583,4.248.7,2.124.7,4.247-.047,2.124-.047,4.248.84,2.126.84,4.251-2.4,2.442-1.869,4.5C-132.32,1505.42-130.075,1505.914-131.575,1507.423Z"/>
      </g>
      <g id="Group_87" data-name="Group 87">
        <path id="Path_80" data-name="Path 80" class="cls-1" d="M-342.863,1223.186c-1.564,1.728-3.467-1.189-5.8-1.189s-2.332-1.081-4.665-1.081-2.331,1.6-4.662,1.6-2.332.15-4.665.15-2.333.53-4.666.53-2.333-2.7-4.667-2.7-2.333.345-4.666.345-2.333,1.343-4.666,1.343-2.333,1.37-4.666,1.37-2.335-3.04-4.67-3.04-2.336,3.313-4.673,3.313-2.948-.081-4.519-1.81c-1.73-1.9.87-2.432.87-5s-2.6-2.571-2.6-5.142,2.214-2.572,2.214-5.143-.475-2.572-.475-5.144.079-2.571.079-5.141,1.039-2.573,1.039-5.146-.966-2.574-.966-5.149-2.118-3.308-.39-5.217c1.563-1.728,2.4-.211,4.736-.211s2.332-.96,4.665-.96,2.331,2.633,4.662,2.633,2.332-.745,4.665-.745,2.333-1.543,4.666-1.543,2.333,1.444,4.667,1.444,2.333-.066,4.666-.066,2.333-1.594,4.666-1.594,2.333-.141,4.666-.141,2.335,1.618,4.67,1.618,2.336-.9,4.673-.9,2.279-.446,3.851,1.283c1.729,1.9-.428,1.824-.428,4.4s-.23,2.571-.23,5.142-.163,2.571-.163,5.143.64,2.572.64,5.144-.044,2.57-.044,5.141,2.592,2.573,2.592,5.145-.811,2.235-.062,4.7C-341.545,1219.75-341.135,1221.277-342.863,1223.186Z"/>
      </g>
      <g id="Group_88" data-name="Group 88">
        <path id="Path_81" data-name="Path 81" class="cls-1" d="M-587.737,974.264c-2.473,2.475-2.762,2.6-6.262,2.6s-3.5-1.022-7-1.022-3.5.176-6.995.176-3.5-2.811-7-2.811-3.5,1.535-7,1.535-3.5,1.467-7,1.467-3.5-1.375-7-1.375-3.5,1.056-7,1.056-3.5,1.387-7,1.387-3.5-3.83-7.007-3.83-3.312,2.815-5.79.339-.631-2.281-.631-5.781-.539-3.5-.539-7-1.986-3.5-1.986-6.995,1.264-3.5,1.264-7,2.415-3.5,2.415-7-3.289-3.5-3.289-7,.151-3.5.151-7-.921-3.5-.921-7,4.544-3.5,4.544-7-4.259-3.5-4.259-7.007-1.333-5.418,1.143-7.9,4.39,2.938,7.89,2.938,3.5-3.854,7-3.854,3.5,4.1,6.995,4.1,3.5-.063,7-.063,3.5-2.461,7-2.461,3.5,1.029,7,1.029,3.5-1.133,7-1.133,3.5,1.323,7,1.323,3.5,1.09,7,1.09,3.5-4.09,7.007-4.09,4.408-.343,6.887,2.133-.365,3.378-.365,6.878.561,3.5.561,7,1.9,3.5,1.9,6.995-2.389,3.5-2.389,7,.866,3.5.866,7-2.357,3.5-2.357,7-.125,3.5-.125,7,1.512,3.5,1.512,7,1.53,3.5,1.53,7-.307,3.345.25,6.8C-585.2,971.1-585.261,971.785-587.737,974.264Z"/>
      </g>
      <g id="Group_89" data-name="Group 89">
        <path id="Path_82" data-name="Path 82" class="cls-1" d="M-628.372,1339.368c-1.841-1.845,1.888-3.975,1.888-6.582s-1.606-2.606-1.606-5.212,3.075-2.6,3.075-5.208-4.361-2.607-4.361-5.213,1.916-2.6,1.916-5.209,1.024-2.606,1.024-5.213-.721-2.607-.721-5.214-.157-2.607-.157-5.214,2.434-2.607,2.434-5.215-1.287-2.608-1.287-5.215-2.035-2.607-2.035-5.213.894-2.609.894-5.218,1.034-2.61,1.034-5.221-1.74-2.548.1-4.4,1.769.575,4.365.575,2.594-1.533,5.188-1.533,2.594,1.561,5.189,1.561,2.6-2.988,5.191-2.988,2.6,2.825,5.189,2.825,2.6-.226,5.192-.226,2.595-2.319,5.19-2.319,2.595,1.871,5.191,1.871,2.6-.571,5.19-.571,2.6.155,5.192.155,2.6.768,5.191.768,2.6-.88,5.193-.88,2.6-.332,5.193-.332,2.6,2.454,5.192,2.454,2.594-4.213,5.188-4.213,2.6,4.41,5.192,4.41,2.594-1.082,5.189-1.082,2.6.814,5.191.814,2.6-1.673,5.194-1.673,2.6-.711,5.194-.711,2.6,2.076,5.194,2.076,2.6-.5,5.2-.5,2.6.875,5.193.875,2.6-.328,5.2-.328,2.6-.612,5.2-.612,4.32-4.035,6.156-2.194-1.093,3.56-1.093,6.167.983,2.606.983,5.212-2.476,2.6-2.476,5.208,1.168,2.607,1.168,5.213,2.044,2.6,2.044,5.209-1.872,2.606-1.872,5.213,1.31,2.607,1.31,5.214-1.167,2.607-1.167,5.214-.616,2.607-.616,5.215,1.619,2.608,1.619,5.215-1.9,2.607-1.9,5.213-.154,2.609-.154,5.218,3.088,2.61,3.088,5.221,1,4.418-.837,6.269-3.649-2.414-6.245-2.414-2.594,1.726-5.188,1.726-2.594-.837-5.189-.837-2.6.14-5.191.14-2.6,2.753-5.189,2.753-2.6-1.935-5.192-1.935-2.595-.394-5.19-.394-2.595.082-5.191.082-2.6.4-5.19.4-2.6,1.916-5.192,1.916-2.6-1.176-5.191-1.176-2.6.332-5.193.332-2.6-1.062-5.193-1.062-2.6-.844-5.192-.844-2.594.789-5.188.789-2.6-2.9-5.192-2.9-2.594.654-5.189.654-2.6,1.176-5.191,1.176-2.6-1.193-5.194-1.193-2.6,3.419-5.194,3.419-2.6-3.785-5.194-3.785-2.6,1.288-5.2,1.288-2.6-.215-5.193-.215-2.6.261-5.2.261-2.578.424-5.052,1.223C-625.052,1339.558-626.535,1341.209-628.372,1339.368Z"/>
      </g>
      <g id="Group_90" data-name="Group 90">
        <path id="Path_83" data-name="Path 83" class="cls-1" d="M-405.273,1554.718c-3.522,3.4-4.625-.281-9.523-.281s-4.9,2.214-9.8,2.214-4.9-4.49-9.8-4.49-4.9,3.844-9.8,3.844-5.47,1.564-9-1.84c-3.4-3.283,2.048-3.894,2.048-8.624s-4.192-4.729-4.192-9.459,2.618-4.73,2.618-9.46-1.828-4.731-1.828-9.462.112-4.73.112-9.46-2.118-4.73-2.118-9.461,4.65-4.729,4.65-9.458-4.724-4.729-4.724-9.459,5.255-4.73,5.255-9.461-2.738-4.732-2.738-9.464,2.132-4.731,2.132-9.461-3.174-4.734-3.174-9.468-1.734-5.644,1.67-8.934c3.522-3.4,4.382,1.424,9.28,1.424s4.9-2.856,9.8-2.856,4.9,1.679,9.8,1.679,4.9-2.881,9.8-2.881,4.557.478,8.084,3.881c3.4,3.284-1.238,2.948-1.238,7.678s-.116,4.729-.116,9.459.3,4.73.3,9.46,4.97,4.731,4.97,9.462-1.634,4.73-1.634,9.46-2.218,4.73-2.218,9.461.023,4.729.023,9.458-.817,4.729-.817,9.459,1.541,4.73,1.541,9.461-.874,4.732-.874,9.464,4.557,4.731,4.557,9.461-1.248,4.326-.3,8.965C-401.549,1549.845-401.869,1551.428-405.273,1554.718Z"/>
      </g>
      <g id="Group_91" data-name="Group 91">
        <path id="Path_84" data-name="Path 84" class="cls-1" d="M-126.205,1302.794c-2.567,2.558-3.419,1.225-7.043,1.225s-3.624-1.167-7.249-1.167-3.625-.616-7.25-.616-3.622,1.619-7.245,1.619-3.624-1.9-7.248-1.9-3.624-.154-7.248-.154-3.624,3.088-7.248,3.088-3.625-.4-7.25-.4-3.627-2.853-7.253-2.853-3.625,1.726-7.25,1.726-3.628-.837-7.256-.837-4.444,2.794-7.017.238c-2.557-2.54-2.654-3.365-2.654-6.968s1.935-3.6,1.935-7.21.394-3.607.394-7.213-.082-3.6-.082-7.209-.4-3.6-.4-7.21-1.916-3.607-1.916-7.213,1.176-3.6,1.176-7.21-.332-3.607-.332-7.214,1.062-3.6,1.062-7.211.844-3.607.844-7.213-.789-3.606-.789-7.213,2.9-3.607,2.9-7.214-.654-3.607-.654-7.213-1.176-3.607-1.176-7.215,1.193-3.608,1.193-7.216-3.419-3.607-3.419-7.214,3.785-3.608,3.785-7.215-1.288-3.608-1.288-7.216.215-3.609.215-7.217-.261-3.606-.261-7.212-1.247-3.608-1.247-7.215.791-3.608.791-7.216.135-3.607.135-7.215-1.74-3.609-1.74-7.217,3.527-3.607,3.527-7.213-3.02-3.61-3.02-7.22,1.7-3.612,1.7-7.224-1.887-3.087.672-5.637,2.041-2.64,5.665-2.64,3.624,2.057,7.249,2.057,3.625-1.436,7.25-1.436,3.622.087,7.245.087,3.624-1.663,7.248-1.663,3.624,3.653,7.248,3.653,3.624-3.712,7.248-3.712,3.625,4.129,7.25,4.129,3.627-2.151,7.253-2.151,3.625,1.675,7.25,1.675,3.628-2.493,7.256-2.493,4.27-1.237,6.844,1.32c2.556,2.54-1.128,3.19-1.128,6.793s2.245,3.6,2.245,7.21-1.32,3.607-1.32,7.213,2.264,3.6,2.264,7.209-3.6,3.6-3.6,7.21-.379,3.607-.379,7.213-.091,3.6-.091,7.21.234,3.607.234,7.214,3.9,3.6,3.9,7.211-1.284,3.607-1.284,7.213-1.743,3.606-1.743,7.213.018,3.607.018,7.214-.642,3.607-.642,7.213,1.211,3.607,1.211,7.215-.687,3.608-.687,7.216,3.581,3.607,3.581,7.214-.2,3.608-.2,7.215-3.656,3.608-3.656,7.216-.51,3.609-.51,7.217.5,3.606.5,7.212,3.009,3.608,3.009,7.215-3.112,3.608-3.112,7.216,3.451,3.607,3.451,7.215-.98,3.609-.98,7.217,1.3,3.607,1.3,7.213-3.669,3.61-3.669,7.22,2.787,3.318,3.5,6.86C-123.447,1299.084-123.647,1300.244-126.205,1302.794Z"/>
      </g>
      <g id="Group_92" data-name="Group 92">
        <path id="Path_85" data-name="Path 85" class="cls-1" d="M-306.627,1666.656c-3.106-3.053,2.245-6.011,2.245-10.366s-1.924-4.356-1.924-8.711,3.684-4.356,3.684-8.712-5.225-4.358-5.225-8.716,2.3-4.357,2.3-8.713,1.226-4.36,1.226-8.719-3.913-5.794-.807-8.853c3.154-3.106,4.558-.242,8.985-.242s4.428,2.916,8.855,2.916,4.427-1.541,8.854-1.541,4.427-2.44,8.855-2.44,4.429,1.071,8.857,1.071,4.428,1.239,8.856,1.239,4.428.527,8.856.527,4.429.278,8.857.278,4.429-1.837,8.858-1.837,4.429,1.87,8.857,1.87,4.428-3.58,8.856-3.58,4.428,3.385,8.855,3.385,4.428-.271,8.856-.271,4.429-2.778,8.858-2.778,4.431,2.241,8.862,2.241,4.429-.683,8.858-.683,4.432.185,8.864.185,4.914-2.509,8.076.6c3.106,3.053.717,3.552.717,7.907s.4,4.356.4,8.711-2.941,4.356-2.941,8.712,5.048,4.358,5.048,8.716-5.284,4.357-5.284,8.713,1.3,4.36,1.3,8.719,2.884,3.858-.222,6.917c-3.154,3.106-2.652,1.277-7.078,1.277s-4.428.852-8.855.852-4.427-2.487-8.854-2.487-4.427.6-8.855.6-4.429-1.049-8.857-1.049-4.428.394-8.856.394-4.428.734-8.856.734-4.429,3.1-8.857,3.1-4.429-1.782-8.858-1.782-4.429,1.177-8.857,1.177-4.428-2.967-8.856-2.967-4.428,1.4-8.856,1.4-4.427,2.45-8.855,2.45-4.429-2.244-8.858-2.244-4.431,1.57-8.862,1.57-4.429-1.4-8.858-1.4-4.87-1.951-9.123-.7C-301.827,1665.72-303.465,1669.762-306.627,1666.656Z"/>
      </g>
      <g id="Group_93" data-name="Group 93">
        <path id="Path_86" data-name="Path 86" class="cls-1" d="M-527.939,1862.862c-5.624-5.775,4.031-10.923,4.031-18.984s-3.4-8.062-3.4-16.123,6.511-8.062,6.511-16.125-9.232-8.06-9.232-16.12,4.056-8.063,4.056-16.126,2.168-8.063,2.168-16.126-1.526-8.065-1.526-16.129-5.768-10.813-.145-16.593c5.471-5.623,8.323,4.953,16.168,4.953s7.847-2.724,15.694-2.724,7.846-4.311,15.692-4.311,7.845,1.893,15.691,1.893,7.847,2.189,15.694,2.189,7.848.932,15.7.932,7.847.49,15.693.49,7.848-3.246,15.695-3.246,7.848,3.3,15.7,3.3,7.848-6.327,15.7-6.327,7.846,5.982,15.693,5.982,7.849-.478,15.7-.478,7.85-4.91,15.7-4.91,7.851,3.961,15.7,3.961,10.2-6.844,15.675-1.22c5.624,5.775-.339,8.036-.339,16.1s-1.625,8.062-1.625,16.123,1.862,8.062,1.862,16.125.705,8.06.705,16.12-5.2,8.063-5.2,16.126,8.921,8.063,8.921,16.126-9.338,8.065-9.338,16.129,8.694,8.434,3.07,14.215c-5.471,5.623-5.878-2.556-13.723-2.556s-7.847,3.543-15.694,3.543-7.846,1.505-15.692,1.505-7.846-4.4-15.691-4.4-7.847,1.053-15.694,1.053-7.848-1.854-15.7-1.854-7.847.7-15.693.7-7.848,1.3-15.7,1.3-7.848,5.484-15.7,5.484-7.848-3.149-15.7-3.149-7.846,2.08-15.693,2.08-7.849-5.242-15.7-5.242-7.85,2.474-15.7,2.474-7.225,1.978-14.757,4.192C-518.01,1866.051-522.461,1868.486-527.939,1862.862Z"/>
      </g>
      <g id="Group_94" data-name="Group 94">
        <path id="Path_87" data-name="Path 87" class="cls-1" d="M-272.254,2166.745c-2.441,2.444-4.2-.151-7.654-.151s-3.454,1.652-6.908,1.652-3.453-1.955-6.9-1.955-3.453-2.337-6.907-2.337-3.453,4.2-6.907,4.2-3.454-3.952-6.907-3.952-3.455.272-6.909.272-3.453,3.151-6.906,3.151-3.455.3-6.911.3-3.458-3.993-6.916-3.993-3.116,3.158-5.563.714-1.873-2.1-1.873-5.553,1.737-3.454,1.737-6.908-2.084-3.453-2.084-6.905-.4-3.453-.4-6.907-.831-3.453-.831-6.907,2.7-3.454,2.7-6.907-2.764-3.455-2.764-6.909.971-3.453.971-6.906,3.255-3.455,3.255-6.911-2.481-3.458-2.481-6.916-2.88-5.327-.436-7.773,4.312-.428,7.766-.428,3.454.379,6.908.379,3.453,2.833,6.9,2.833,3.453-1.33,6.907-1.33,3.453.522,6.907.522,3.454-.662,6.907-.662,3.455-2.767,6.909-2.767,3.453,3.668,6.906,3.668,3.455-2.962,6.911-2.962,3.458-.7,6.916-.7,4.448-.118,6.895,2.325-.5,3.433-.5,6.887,2.721,3.454,2.721,6.908-.416,3.453-.416,6.905-2.782,3.453-2.782,6.907,1.225,3.453,1.225,6.907-.083,3.454-.083,6.907,1.476,3.455,1.476,6.909-3.34,3.453-3.34,6.906,2.79,3.455,2.79,6.911-1.156,3.364-.276,6.708C-271.164,2162.853-269.811,2164.3-272.254,2166.745Z"/>
      </g>
      <g id="Group_95" data-name="Group 95">
        <path id="Path_88" data-name="Path 88" class="cls-1" d="M-136.575,2259.423c-1.49,1.5-2.539-.085-4.653-.085s-2.113.94-4.225.94-2.115-1.113-4.23-1.113-2.114-1.329-4.227-1.329-2.115,2.387-4.229,2.387-2.116-2.249-4.231-2.249-2.115.156-4.231.156-2.115,1.792-4.231,1.792-2.115.173-4.23.173-2.115-2.272-4.23-2.272-2.117.087-4.234.087-2.119,1.386-4.237,1.386-2.251.715-3.747-.785-.984-1.635-.984-3.759-.23-2.124-.23-4.249-.473-2.124-.473-4.248,1.537-2.124,1.537-4.247-1.573-2.124-1.573-4.248.553-2.126.553-4.251,1.851-2.127,1.851-4.255-2.841-2.914-1.341-4.423,2.284-.521,4.4-.521,2.113-.041,4.225-.041,2.115.216,4.23.216,2.114,1.611,4.227,1.611,2.115-.756,4.229-.756,2.116.3,4.231.3,2.115-.377,4.231-.377,2.115-1.575,4.231-1.575,2.115,2.087,4.23,2.087,2.115-1.684,4.23-1.684,2.117-.4,4.234-.4,2.119,1.328,4.237,1.328,2.53-1.306,4.026.194,1.461,1.913,1.461,4.037-.237,2.124-.237,4.249-1.583,2.124-1.583,4.248.7,2.124.7,4.247-.047,2.124-.047,4.248.84,2.126.84,4.251-2.4,2.442-1.869,4.5C-137.32,2257.42-135.075,2257.914-136.575,2259.423Z"/>
      </g>
      <g id="Group_96" data-name="Group 96">
        <path id="Path_89" data-name="Path 89" class="cls-1" d="M-347.863,1975.186c-1.564,1.728-3.467-1.189-5.8-1.189s-2.332-1.081-4.665-1.081-2.331,1.6-4.662,1.6-2.332.15-4.665.15-2.333.53-4.666.53-2.333-2.7-4.667-2.7-2.333.345-4.666.345-2.333,1.343-4.666,1.343-2.333,1.37-4.666,1.37-2.335-3.04-4.67-3.04-2.336,3.313-4.673,3.313-2.948-.081-4.519-1.81c-1.73-1.9.87-2.432.87-5s-2.6-2.571-2.6-5.142,2.214-2.572,2.214-5.143-.475-2.572-.475-5.144.079-2.571.079-5.141,1.039-2.573,1.039-5.146-.966-2.574-.966-5.149-2.118-3.308-.39-5.217c1.563-1.728,2.4-.211,4.736-.211s2.332-.96,4.665-.96,2.331,2.633,4.662,2.633,2.332-.745,4.665-.745,2.333-1.543,4.666-1.543,2.333,1.444,4.667,1.444,2.333-.066,4.666-.066,2.333-1.594,4.666-1.594,2.333-.141,4.666-.141,2.335,1.618,4.67,1.618,2.336-.9,4.673-.9,2.279-.446,3.851,1.283c1.729,1.9-.428,1.824-.428,4.4s-.23,2.571-.23,5.142-.163,2.571-.163,5.143.64,2.572.64,5.144-.044,2.57-.044,5.141,2.592,2.573,2.592,5.145-.811,2.235-.062,4.7C-346.545,1971.75-346.135,1973.277-347.863,1975.186Z"/>
      </g>
      <g id="Group_97" data-name="Group 97">
        <path id="Path_90" data-name="Path 90" class="cls-1" d="M-633.372,2091.368c-1.841-1.845,1.888-3.975,1.888-6.582s-1.606-2.606-1.606-5.212,3.075-2.6,3.075-5.208-4.361-2.607-4.361-5.213,1.916-2.6,1.916-5.209,1.024-2.606,1.024-5.213-.721-2.607-.721-5.214-.157-2.607-.157-5.214,2.434-2.607,2.434-5.215-1.287-2.608-1.287-5.215-2.035-2.607-2.035-5.213.894-2.609.894-5.218,1.034-2.61,1.034-5.221-1.74-2.548.1-4.4,1.769.575,4.365.575,2.594-1.533,5.188-1.533,2.594,1.561,5.189,1.561,2.6-2.988,5.191-2.988,2.6,2.825,5.189,2.825,2.6-.226,5.192-.226,2.595-2.319,5.19-2.319,2.595,1.871,5.191,1.871,2.6-.571,5.19-.571,2.6.155,5.192.155,2.6.768,5.191.768,2.6-.88,5.193-.88,2.6-.332,5.193-.332,2.6,2.454,5.192,2.454,2.594-4.213,5.188-4.213,2.6,4.41,5.192,4.41,2.594-1.082,5.189-1.082,2.6.814,5.191.814,2.6-1.673,5.194-1.673,2.6-.711,5.194-.711,2.6,2.076,5.194,2.076,2.6-.5,5.2-.5,2.6.875,5.193.875,2.6-.328,5.2-.328,2.6-.612,5.2-.612,4.32-4.035,6.156-2.194-1.093,3.56-1.093,6.167.983,2.606.983,5.212-2.476,2.6-2.476,5.208,1.168,2.607,1.168,5.213,2.044,2.6,2.044,5.209-1.872,2.606-1.872,5.213,1.31,2.607,1.31,5.214-1.167,2.607-1.167,5.214-.616,2.607-.616,5.215,1.619,2.608,1.619,5.215-1.9,2.607-1.9,5.213-.154,2.609-.154,5.218,3.088,2.61,3.088,5.221,1,4.418-.837,6.269-3.649-2.414-6.245-2.414-2.594,1.726-5.188,1.726-2.594-.837-5.189-.837-2.6.14-5.191.14-2.6,2.753-5.189,2.753-2.6-1.935-5.192-1.935-2.595-.394-5.19-.394-2.595.082-5.191.082-2.6.4-5.19.4-2.6,1.916-5.192,1.916-2.6-1.176-5.191-1.176-2.6.332-5.193.332-2.6-1.062-5.193-1.062-2.6-.844-5.192-.844-2.594.789-5.188.789-2.6-2.9-5.192-2.9-2.594.654-5.189.654-2.6,1.176-5.191,1.176-2.6-1.193-5.194-1.193-2.6,3.419-5.194,3.419-2.6-3.785-5.194-3.785-2.6,1.288-5.2,1.288-2.6-.215-5.193-.215-2.6.261-5.2.261-2.578.424-5.052,1.223C-630.052,2091.558-631.535,2093.209-633.372,2091.368Z"/>
      </g>
      <g id="Group_98" data-name="Group 98">
        <path id="Path_91" data-name="Path 91" class="cls-1" d="M-311.627,2431.656c-3.106-3.053,2.245-6.011,2.245-10.366s-1.924-4.356-1.924-8.711,3.684-4.356,3.684-8.712-5.225-4.358-5.225-8.716,2.3-4.357,2.3-8.713,1.226-4.36,1.226-8.719-3.913-5.794-.807-8.853c3.154-3.106,4.558-.242,8.985-.242s4.428,2.916,8.855,2.916,4.427-1.541,8.854-1.541,4.427-2.44,8.855-2.44,4.429,1.071,8.857,1.071,4.428,1.239,8.856,1.239,4.428.527,8.856.527,4.429.278,8.857.278,4.429-1.837,8.858-1.837,4.429,1.87,8.857,1.87,4.428-3.58,8.856-3.58,4.428,3.385,8.855,3.385,4.428-.271,8.856-.271,4.429-2.778,8.858-2.778,4.431,2.241,8.862,2.241,4.429-.683,8.858-.683,4.432.185,8.864.185,4.914-2.509,8.076.6c3.106,3.053.717,3.552.717,7.907s.4,4.356.4,8.711-2.941,4.356-2.941,8.712,5.048,4.358,5.048,8.716-5.284,4.357-5.284,8.713,1.3,4.36,1.3,8.719,2.884,3.858-.222,6.917c-3.154,3.106-2.652,1.277-7.078,1.277s-4.428.852-8.855.852-4.427-2.487-8.854-2.487-4.427.595-8.855.595-4.429-1.049-8.857-1.049-4.428.394-8.856.394-4.428.734-8.856.734-4.429,3.1-8.857,3.1-4.429-1.782-8.858-1.782-4.429,1.177-8.857,1.177-4.428-2.967-8.856-2.967-4.428,1.4-8.856,1.4-4.427,2.45-8.855,2.45-4.429-2.244-8.858-2.244-4.431,1.57-8.862,1.57-4.429-1.4-8.858-1.4-4.87-1.951-9.123-.7C-306.827,2430.72-308.465,2434.762-311.627,2431.656Z"/>
      </g>
      <g id="Group_99" data-name="Group 99">
        <path id="Path_92" data-name="Path 92" class="cls-1" d="M-532.939,2627.862c-5.624-5.775,4.031-10.923,4.031-18.984s-3.4-8.062-3.4-16.123,6.511-8.062,6.511-16.125-9.232-8.06-9.232-16.12,4.056-8.063,4.056-16.126,2.168-8.063,2.168-16.126-1.526-8.065-1.526-16.129-5.768-10.813-.145-16.593c5.471-5.623,8.323,4.953,16.168,4.953s7.847-2.724,15.694-2.724,7.846-4.311,15.692-4.311,7.845,1.893,15.691,1.893,7.847,2.189,15.694,2.189,7.848.932,15.7.932,7.847.49,15.693.49,7.848-3.246,15.695-3.246,7.848,3.305,15.7,3.305,7.848-6.327,15.7-6.327,7.846,5.982,15.693,5.982,7.849-.478,15.7-.478,7.85-4.91,15.7-4.91,7.851,3.961,15.7,3.961,10.2-6.844,15.675-1.22c5.624,5.775-.339,8.036-.339,16.1s-1.625,8.062-1.625,16.123,1.862,8.062,1.862,16.125.705,8.06.705,16.12-5.2,8.063-5.2,16.126,8.921,8.063,8.921,16.126-9.338,8.065-9.338,16.129,8.694,8.434,3.07,14.215c-5.471,5.623-5.878-2.556-13.723-2.556s-7.847,3.543-15.694,3.543-7.846,1.5-15.692,1.5-7.846-4.4-15.691-4.4-7.847,1.053-15.694,1.053-7.848-1.854-15.7-1.854-7.847.695-15.693.695-7.848,1.3-15.7,1.3-7.848,5.484-15.7,5.484-7.848-3.149-15.7-3.149-7.846,2.08-15.693,2.08-7.849-5.242-15.7-5.242-7.85,2.474-15.7,2.474-7.225,1.978-14.757,4.192C-523.01,2631.051-527.461,2633.486-532.939,2627.862Z"/>
      </g>
      <g id="Group_100" data-name="Group 100">
        <path id="Path_93" data-name="Path 93" class="cls-1" d="M-277.254,2931.745c-2.441,2.444-4.2-.151-7.654-.151s-3.454,1.652-6.908,1.652-3.453-1.955-6.9-1.955-3.453-2.337-6.907-2.337-3.453,4.2-6.907,4.2-3.454-3.952-6.907-3.952-3.455.272-6.909.272-3.453,3.151-6.906,3.151-3.455.3-6.911.3-3.458-3.993-6.916-3.993-3.116,3.158-5.563.714-1.873-2.1-1.873-5.553,1.737-3.454,1.737-6.908-2.084-3.453-2.084-6.905-.4-3.453-.4-6.907-.831-3.453-.831-6.907,2.7-3.454,2.7-6.907-2.764-3.455-2.764-6.909.971-3.453.971-6.906,3.255-3.455,3.255-6.911-2.481-3.458-2.481-6.916-2.88-5.327-.436-7.773,4.312-.428,7.766-.428,3.454.379,6.908.379,3.453,2.833,6.9,2.833,3.453-1.33,6.907-1.33,3.453.522,6.907.522,3.454-.662,6.907-.662,3.455-2.767,6.909-2.767,3.453,3.668,6.906,3.668,3.455-2.962,6.911-2.962,3.458-.7,6.916-.7,4.448-.118,6.895,2.325-.5,3.433-.5,6.887,2.721,3.454,2.721,6.908-.416,3.453-.416,6.905-2.782,3.453-2.782,6.907,1.225,3.453,1.225,6.907-.083,3.454-.083,6.907,1.476,3.455,1.476,6.909-3.34,3.453-3.34,6.906,2.79,3.455,2.79,6.911-1.156,3.364-.276,6.708C-276.164,2927.853-274.811,2929.3-277.254,2931.745Z"/>
      </g>
      <g id="Group_101" data-name="Group 101">
        <path id="Path_94" data-name="Path 94" class="cls-1" d="M-141.575,3024.423c-1.49,1.5-2.539-.085-4.653-.085s-2.113.94-4.225.94-2.115-1.113-4.23-1.113-2.114-1.329-4.227-1.329-2.115,2.387-4.229,2.387-2.116-2.249-4.231-2.249-2.115.156-4.231.156-2.115,1.792-4.231,1.792-2.115.173-4.23.173-2.115-2.272-4.23-2.272-2.117.087-4.234.087-2.119,1.386-4.237,1.386-2.251.715-3.747-.785-.984-1.635-.984-3.759-.23-2.124-.23-4.249-.473-2.124-.473-4.248,1.537-2.124,1.537-4.247-1.573-2.124-1.573-4.248.553-2.126.553-4.251,1.851-2.127,1.851-4.255-2.841-2.914-1.341-4.423,2.284-.521,4.4-.521,2.113-.041,4.225-.041,2.115.216,4.23.216,2.114,1.611,4.227,1.611,2.115-.756,4.229-.756,2.116.3,4.231.3,2.115-.377,4.231-.377,2.115-1.575,4.231-1.575,2.115,2.087,4.23,2.087,2.115-1.684,4.23-1.684,2.117-.4,4.234-.4,2.119,1.328,4.237,1.328,2.53-1.306,4.026.194,1.461,1.913,1.461,4.037-.237,2.124-.237,4.249-1.583,2.124-1.583,4.248.7,2.124.7,4.247-.047,2.124-.047,4.248.84,2.126.84,4.251-2.4,2.442-1.869,4.5C-142.32,3022.42-140.075,3022.914-141.575,3024.423Z"/>
      </g>
      <g id="Group_102" data-name="Group 102">
        <path id="Path_95" data-name="Path 95" class="cls-1" d="M-352.863,2740.186c-1.564,1.728-3.467-1.189-5.8-1.189s-2.332-1.081-4.665-1.081-2.331,1.6-4.662,1.6-2.332.15-4.665.15-2.333.53-4.666.53-2.333-2.7-4.667-2.7-2.333.345-4.666.345-2.333,1.343-4.666,1.343-2.333,1.37-4.666,1.37-2.335-3.04-4.67-3.04-2.336,3.313-4.673,3.313-2.948-.081-4.519-1.81c-1.73-1.9.87-2.432.87-5s-2.6-2.571-2.6-5.142,2.214-2.572,2.214-5.143-.475-2.572-.475-5.144.079-2.571.079-5.141,1.039-2.573,1.039-5.146-.966-2.574-.966-5.149-2.118-3.308-.39-5.217c1.563-1.728,2.4-.211,4.736-.211s2.332-.96,4.665-.96,2.331,2.633,4.662,2.633,2.332-.745,4.665-.745,2.333-1.543,4.666-1.543,2.333,1.444,4.667,1.444,2.333-.066,4.666-.066,2.333-1.594,4.666-1.594,2.333-.141,4.666-.141,2.335,1.618,4.67,1.618,2.336-.9,4.673-.9,2.279-.446,3.851,1.283c1.729,1.9-.428,1.824-.428,4.4s-.23,2.571-.23,5.142-.163,2.571-.163,5.143.64,2.572.64,5.144-.044,2.57-.044,5.141,2.592,2.573,2.592,5.145-.811,2.235-.062,4.7C-351.545,2736.75-351.135,2738.277-352.863,2740.186Z"/>
      </g>
      <g id="Group_103" data-name="Group 103">
        <path id="Path_96" data-name="Path 96" class="cls-1" d="M-597.737,2491.264c-2.473,2.475-2.762,2.6-6.262,2.6s-3.5-1.022-7-1.022-3.5.176-6.995.176-3.5-2.811-7-2.811-3.5,1.535-7,1.535-3.5,1.467-7,1.467-3.5-1.375-7-1.375-3.5,1.056-7,1.056-3.5,1.387-7,1.387-3.5-3.83-7.007-3.83-3.312,2.815-5.79.339-.631-2.281-.631-5.781-.539-3.5-.539-7-1.986-3.5-1.986-6.995,1.264-3.5,1.264-7,2.415-3.5,2.415-7-3.289-3.5-3.289-7,.151-3.5.151-7-.921-3.5-.921-7,4.544-3.5,4.544-7-4.259-3.5-4.259-7.007-1.333-5.418,1.143-7.9,4.39,2.938,7.89,2.938,3.5-3.854,7-3.854,3.5,4.1,6.995,4.1,3.5-.063,7-.063,3.5-2.461,7-2.461,3.5,1.029,7,1.029,3.5-1.133,7-1.133,3.5,1.323,7,1.323,3.5,1.09,7,1.09,3.5-4.09,7.007-4.09,4.408-.343,6.887,2.133-.365,3.378-.365,6.878.561,3.5.561,7,1.9,3.5,1.9,6.995-2.389,3.5-2.389,7,.866,3.5.866,7-2.357,3.5-2.357,7-.125,3.5-.125,7,1.512,3.5,1.512,7,1.53,3.5,1.53,7-.307,3.345.25,6.8C-595.2,2488.1-595.261,2488.785-597.737,2491.264Z"/>
      </g>
      <g id="Group_104" data-name="Group 104">
        <path id="Path_97" data-name="Path 97" class="cls-1" d="M-638.372,2856.368c-1.841-1.845,1.888-3.975,1.888-6.582s-1.606-2.606-1.606-5.212,3.075-2.6,3.075-5.208-4.361-2.607-4.361-5.213,1.916-2.6,1.916-5.209,1.024-2.606,1.024-5.213-.721-2.607-.721-5.214-.157-2.607-.157-5.214,2.434-2.607,2.434-5.215-1.287-2.608-1.287-5.215-2.035-2.607-2.035-5.213.894-2.609.894-5.218,1.034-2.61,1.034-5.221-1.74-2.548.1-4.4,1.769.575,4.365.575,2.594-1.533,5.188-1.533,2.594,1.561,5.189,1.561,2.6-2.988,5.191-2.988,2.6,2.825,5.189,2.825,2.6-.226,5.192-.226,2.595-2.319,5.19-2.319,2.595,1.871,5.191,1.871,2.6-.571,5.19-.571,2.6.155,5.192.155,2.6.768,5.191.768,2.6-.88,5.193-.88,2.6-.332,5.193-.332,2.6,2.454,5.192,2.454,2.594-4.213,5.188-4.213,2.6,4.41,5.192,4.41,2.594-1.082,5.189-1.082,2.6.814,5.191.814,2.6-1.673,5.194-1.673,2.6-.711,5.194-.711,2.6,2.076,5.194,2.076,2.6-.5,5.2-.5,2.6.875,5.193.875,2.6-.328,5.2-.328,2.6-.612,5.2-.612,4.32-4.035,6.156-2.194-1.093,3.56-1.093,6.167.983,2.606.983,5.212-2.476,2.6-2.476,5.208,1.168,2.607,1.168,5.213,2.044,2.6,2.044,5.209-1.872,2.606-1.872,5.213,1.31,2.607,1.31,5.214-1.167,2.607-1.167,5.214-.616,2.607-.616,5.215,1.619,2.608,1.619,5.215-1.9,2.607-1.9,5.213-.154,2.609-.154,5.218,3.088,2.61,3.088,5.221,1,4.418-.837,6.269-3.649-2.414-6.245-2.414-2.594,1.726-5.188,1.726-2.594-.837-5.189-.837-2.6.14-5.191.14-2.6,2.753-5.189,2.753-2.6-1.935-5.192-1.935-2.595-.394-5.19-.394-2.595.082-5.191.082-2.6.4-5.19.4-2.6,1.916-5.192,1.916-2.6-1.176-5.191-1.176-2.6.332-5.193.332-2.6-1.062-5.193-1.062-2.6-.844-5.192-.844-2.594.789-5.188.789-2.6-2.9-5.192-2.9-2.594.654-5.189.654-2.6,1.176-5.191,1.176-2.6-1.193-5.194-1.193-2.6,3.419-5.194,3.419-2.6-3.785-5.194-3.785-2.6,1.288-5.2,1.288-2.6-.215-5.193-.215-2.6.261-5.2.261-2.578.424-5.052,1.223C-635.052,2856.558-636.535,2858.209-638.372,2856.368Z"/>
      </g>
      <g id="Group_105" data-name="Group 105">
        <path id="Path_98" data-name="Path 98" class="cls-1" d="M-415.273,3071.718c-3.522,3.4-4.625-.281-9.523-.281s-4.9,2.214-9.8,2.214-4.9-4.49-9.8-4.49-4.9,3.844-9.8,3.844-5.47,1.564-9-1.84c-3.4-3.283,2.048-3.894,2.048-8.624s-4.192-4.729-4.192-9.459,2.618-4.73,2.618-9.46-1.828-4.731-1.828-9.462.112-4.73.112-9.46-2.118-4.73-2.118-9.461,4.65-4.729,4.65-9.458-4.724-4.729-4.724-9.459,5.255-4.73,5.255-9.461-2.738-4.732-2.738-9.464,2.132-4.731,2.132-9.461-3.174-4.734-3.174-9.468-1.734-5.644,1.67-8.934c3.522-3.4,4.382,1.424,9.28,1.424s4.9-2.856,9.8-2.856,4.9,1.679,9.8,1.679,4.9-2.881,9.8-2.881,4.557.478,8.084,3.881c3.4,3.284-1.238,2.948-1.238,7.678s-.116,4.729-.116,9.459.3,4.73.3,9.46,4.97,4.731,4.97,9.462-1.634,4.73-1.634,9.46-2.218,4.73-2.218,9.461.023,4.729.023,9.458-.817,4.729-.817,9.459,1.541,4.73,1.541,9.461-.874,4.732-.874,9.464,4.557,4.731,4.557,9.461-1.248,4.326-.3,8.965C-411.549,3066.845-411.869,3068.428-415.273,3071.718Z"/>
      </g>
      <g id="Group_106" data-name="Group 106">
        <path id="Path_99" data-name="Path 99" class="cls-1" d="M-136.205,2819.794c-2.567,2.558-3.419,1.225-7.043,1.225s-3.624-1.167-7.249-1.167-3.625-.616-7.25-.616-3.622,1.619-7.245,1.619-3.624-1.9-7.248-1.9-3.624-.154-7.248-.154-3.624,3.088-7.248,3.088-3.625-.4-7.25-.4-3.627-2.853-7.253-2.853-3.625,1.726-7.25,1.726-3.628-.837-7.256-.837-4.444,2.794-7.017.238c-2.557-2.54-2.654-3.365-2.654-6.968s1.935-3.6,1.935-7.21.394-3.607.394-7.213-.082-3.6-.082-7.209-.4-3.6-.4-7.21-1.916-3.607-1.916-7.213,1.176-3.6,1.176-7.21-.332-3.607-.332-7.214,1.062-3.6,1.062-7.211.844-3.607.844-7.213-.789-3.606-.789-7.213,2.9-3.607,2.9-7.214-.654-3.607-.654-7.213-1.176-3.607-1.176-7.215,1.193-3.608,1.193-7.216-3.419-3.607-3.419-7.214,3.785-3.608,3.785-7.215-1.288-3.608-1.288-7.216.215-3.609.215-7.217-.261-3.606-.261-7.212-1.247-3.608-1.247-7.215.791-3.608.791-7.216.135-3.607.135-7.215-1.74-3.609-1.74-7.217,3.527-3.607,3.527-7.213-3.02-3.61-3.02-7.22,1.7-3.612,1.7-7.224-1.887-3.087.672-5.637,2.041-2.64,5.665-2.64,3.624,2.057,7.249,2.057,3.625-1.436,7.25-1.436,3.622.087,7.245.087,3.624-1.663,7.248-1.663,3.624,3.653,7.248,3.653,3.624-3.712,7.248-3.712,3.625,4.129,7.25,4.129,3.627-2.151,7.253-2.151,3.625,1.675,7.25,1.675,3.628-2.493,7.256-2.493,4.27-1.237,6.844,1.32c2.556,2.54-1.128,3.19-1.128,6.793s2.245,3.6,2.245,7.21-1.32,3.607-1.32,7.213,2.264,3.6,2.264,7.209-3.6,3.6-3.6,7.21-.379,3.607-.379,7.213-.091,3.6-.091,7.21.234,3.607.234,7.214,3.9,3.6,3.9,7.211-1.284,3.607-1.284,7.213-1.743,3.606-1.743,7.213.018,3.607.018,7.214-.642,3.607-.642,7.213,1.211,3.607,1.211,7.215-.687,3.608-.687,7.216,3.581,3.607,3.581,7.214-.2,3.608-.2,7.215-3.656,3.608-3.656,7.216-.51,3.609-.51,7.217.5,3.606.5,7.212,3.009,3.608,3.009,7.215-3.112,3.608-3.112,7.216,3.451,3.607,3.451,7.215-.98,3.609-.98,7.217,1.3,3.607,1.3,7.213-3.669,3.61-3.669,7.22,2.787,3.318,3.5,6.86C-133.447,2816.084-133.647,2817.244-136.205,2819.794Z"/>
      </g>
      <g id="Group_107" data-name="Group 107">
        <path id="Path_100" data-name="Path 100" class="cls-1" d="M-316.627,3196.656c-3.106-3.053,2.245-6.011,2.245-10.366s-1.924-4.356-1.924-8.711,3.684-4.356,3.684-8.712-5.225-4.358-5.225-8.716,2.3-4.357,2.3-8.713,1.226-4.36,1.226-8.719-3.913-5.794-.807-8.853c3.154-3.106,4.558-.242,8.985-.242s4.428,2.916,8.855,2.916,4.427-1.541,8.854-1.541,4.427-2.44,8.855-2.44,4.429,1.071,8.857,1.071,4.428,1.239,8.856,1.239,4.428.527,8.856.527,4.429.278,8.857.278,4.429-1.837,8.858-1.837,4.429,1.87,8.857,1.87,4.428-3.58,8.856-3.58,4.428,3.385,8.855,3.385,4.428-.271,8.856-.271,4.429-2.778,8.858-2.778,4.431,2.241,8.862,2.241,4.429-.683,8.858-.683,4.432.185,8.864.185,4.914-2.509,8.076.6c3.106,3.053.717,3.552.717,7.907s.4,4.356.4,8.711-2.941,4.356-2.941,8.712,5.048,4.358,5.048,8.716-5.284,4.357-5.284,8.713,1.3,4.36,1.3,8.719,2.884,3.858-.222,6.917c-3.154,3.106-2.652,1.277-7.078,1.277s-4.428.852-8.855.852-4.427-2.487-8.854-2.487-4.427.595-8.855.595-4.429-1.049-8.857-1.049-4.428.394-8.856.394-4.428.734-8.856.734-4.429,3.1-8.857,3.1-4.429-1.782-8.858-1.782-4.429,1.177-8.857,1.177-4.428-2.967-8.856-2.967-4.428,1.4-8.856,1.4-4.427,2.45-8.855,2.45-4.429-2.244-8.858-2.244-4.431,1.57-8.862,1.57-4.429-1.4-8.858-1.4-4.87-1.951-9.123-.7C-311.827,3195.72-313.465,3199.762-316.627,3196.656Z"/>
      </g>
      <g id="Group_108" data-name="Group 108">
        <path id="Path_101" data-name="Path 101" class="cls-1" d="M-537.939,3392.862c-5.624-5.775,4.031-10.923,4.031-18.984s-3.4-8.062-3.4-16.123,6.511-8.062,6.511-16.125-9.232-8.06-9.232-16.12,4.056-8.063,4.056-16.126,2.168-8.063,2.168-16.126-1.526-8.065-1.526-16.129-5.768-10.813-.145-16.593c5.471-5.623,8.323,4.953,16.168,4.953s7.847-2.724,15.694-2.724,7.846-4.311,15.692-4.311,7.845,1.893,15.691,1.893,7.847,2.189,15.694,2.189,7.848.932,15.7.932,7.847.49,15.693.49,7.848-3.246,15.695-3.246,7.848,3.305,15.7,3.305,7.848-6.327,15.7-6.327,7.846,5.982,15.693,5.982,7.849-.478,15.7-.478,7.85-4.91,15.7-4.91,7.851,3.961,15.7,3.961,10.2-6.844,15.675-1.22c5.624,5.775-.339,8.036-.339,16.1s-1.625,8.062-1.625,16.123,1.862,8.062,1.862,16.125.705,8.06.705,16.12-5.2,8.063-5.2,16.126,8.921,8.063,8.921,16.126-9.338,8.065-9.338,16.129,8.694,8.434,3.07,14.215c-5.471,5.623-5.878-2.556-13.723-2.556s-7.847,3.543-15.694,3.543-7.846,1.5-15.692,1.5-7.846-4.4-15.691-4.4-7.847,1.053-15.694,1.053-7.848-1.854-15.7-1.854-7.847.695-15.693.695-7.848,1.3-15.7,1.3-7.848,5.484-15.7,5.484-7.848-3.149-15.7-3.149-7.846,2.08-15.693,2.08-7.849-5.242-15.7-5.242-7.85,2.474-15.7,2.474-7.225,1.978-14.757,4.192C-528.01,3396.051-532.461,3398.486-537.939,3392.862Z"/>
      </g>
      <g id="Group_109" data-name="Group 109">
        <path id="Path_102" data-name="Path 102" class="cls-1" d="M-282.254,3696.745c-2.441,2.444-4.2-.151-7.654-.151s-3.454,1.652-6.908,1.652-3.453-1.955-6.9-1.955-3.453-2.337-6.907-2.337-3.453,4.2-6.907,4.2-3.454-3.952-6.907-3.952-3.455.272-6.909.272-3.453,3.151-6.906,3.151-3.455.3-6.911.3-3.458-3.993-6.916-3.993-3.116,3.158-5.563.714-1.873-2.1-1.873-5.553,1.737-3.454,1.737-6.908-2.084-3.453-2.084-6.905-.4-3.453-.4-6.907-.831-3.453-.831-6.907,2.7-3.454,2.7-6.907-2.764-3.455-2.764-6.909.971-3.453.971-6.906,3.255-3.455,3.255-6.911-2.481-3.458-2.481-6.916-2.88-5.327-.436-7.773,4.312-.428,7.766-.428,3.454.379,6.908.379,3.453,2.833,6.9,2.833,3.453-1.33,6.907-1.33,3.453.522,6.907.522,3.454-.662,6.907-.662,3.455-2.767,6.909-2.767,3.453,3.668,6.906,3.668,3.455-2.962,6.911-2.962,3.458-.7,6.916-.7,4.448-.118,6.895,2.325-.5,3.433-.5,6.887,2.721,3.454,2.721,6.908-.416,3.453-.416,6.905-2.782,3.453-2.782,6.907,1.225,3.453,1.225,6.907-.083,3.454-.083,6.907,1.476,3.455,1.476,6.909-3.34,3.453-3.34,6.906,2.79,3.455,2.79,6.911-1.156,3.364-.276,6.708C-281.164,3692.853-279.811,3694.3-282.254,3696.745Z"/>
      </g>
      <g id="Group_110" data-name="Group 110">
        <path id="Path_103" data-name="Path 103" class="cls-1" d="M-146.575,3789.423c-1.49,1.5-2.539-.085-4.653-.085s-2.113.94-4.225.94-2.115-1.113-4.23-1.113-2.114-1.329-4.227-1.329-2.115,2.387-4.229,2.387-2.116-2.249-4.231-2.249-2.115.156-4.231.156-2.115,1.792-4.231,1.792-2.115.173-4.23.173-2.115-2.272-4.23-2.272-2.117.087-4.234.087-2.119,1.386-4.237,1.386-2.251.715-3.747-.785-.984-1.635-.984-3.759-.23-2.124-.23-4.249-.473-2.124-.473-4.248,1.537-2.124,1.537-4.247-1.573-2.124-1.573-4.248.553-2.126.553-4.251,1.851-2.127,1.851-4.255-2.841-2.914-1.341-4.423,2.284-.521,4.4-.521,2.113-.041,4.225-.041,2.115.216,4.23.216,2.114,1.611,4.227,1.611,2.115-.756,4.229-.756,2.116.3,4.231.3,2.115-.377,4.231-.377,2.115-1.575,4.231-1.575,2.115,2.087,4.23,2.087,2.115-1.684,4.23-1.684,2.117-.4,4.234-.4,2.119,1.328,4.237,1.328,2.53-1.306,4.026.194,1.461,1.913,1.461,4.037-.237,2.124-.237,4.249-1.583,2.124-1.583,4.248.7,2.124.7,4.247-.047,2.124-.047,4.248.84,2.126.84,4.251-2.4,2.442-1.869,4.5C-147.32,3787.42-145.075,3787.914-146.575,3789.423Z"/>
      </g>
      <g id="Group_111" data-name="Group 111">
        <path id="Path_104" data-name="Path 104" class="cls-1" d="M-357.863,3505.186c-1.564,1.728-3.467-1.189-5.8-1.189s-2.332-1.081-4.665-1.081-2.331,1.6-4.662,1.6-2.332.15-4.665.15-2.333.53-4.666.53-2.333-2.7-4.667-2.7-2.333.345-4.666.345-2.333,1.343-4.666,1.343-2.333,1.37-4.666,1.37-2.335-3.04-4.67-3.04-2.336,3.313-4.673,3.313-2.948-.081-4.519-1.81c-1.73-1.9.87-2.432.87-5s-2.6-2.571-2.6-5.142,2.214-2.572,2.214-5.143-.475-2.572-.475-5.144.079-2.571.079-5.141,1.039-2.573,1.039-5.146-.966-2.574-.966-5.149-2.118-3.308-.39-5.217c1.563-1.728,2.4-.211,4.736-.211s2.332-.96,4.665-.96,2.331,2.633,4.662,2.633,2.332-.745,4.665-.745,2.333-1.543,4.666-1.543,2.333,1.444,4.667,1.444,2.333-.066,4.666-.066,2.333-1.594,4.666-1.594,2.333-.141,4.666-.141,2.335,1.618,4.67,1.618,2.336-.9,4.673-.9,2.279-.446,3.851,1.283c1.729,1.9-.428,1.824-.428,4.4s-.23,2.571-.23,5.142-.163,2.571-.163,5.143.64,2.572.64,5.144-.044,2.57-.044,5.141,2.592,2.573,2.592,5.145-.811,2.235-.062,4.7C-356.545,3501.75-356.135,3503.277-357.863,3505.186Z"/>
      </g>
      <g id="Group_112" data-name="Group 112">
        <path id="Path_105" data-name="Path 105" class="cls-1" d="M-602.737,3256.264c-2.473,2.475-2.762,2.6-6.262,2.6s-3.5-1.022-7-1.022-3.5.176-6.995.176-3.5-2.811-7-2.811-3.5,1.535-7,1.535-3.5,1.467-7,1.467-3.5-1.375-7-1.375-3.5,1.056-7,1.056-3.5,1.387-7,1.387-3.5-3.83-7.007-3.83-3.312,2.815-5.79.339-.631-2.281-.631-5.781-.539-3.5-.539-7-1.986-3.5-1.986-6.995,1.264-3.5,1.264-7,2.415-3.5,2.415-7-3.289-3.5-3.289-7,.151-3.5.151-7-.921-3.5-.921-7,4.544-3.5,4.544-7-4.259-3.5-4.259-7.007-1.333-5.418,1.143-7.9,4.39,2.938,7.89,2.938,3.5-3.854,7-3.854,3.5,4.1,6.995,4.1,3.5-.063,7-.063,3.5-2.461,7-2.461,3.5,1.029,7,1.029,3.5-1.133,7-1.133,3.5,1.323,7,1.323,3.5,1.09,7,1.09,3.5-4.09,7.007-4.09,4.408-.343,6.887,2.133-.365,3.378-.365,6.878.561,3.5.561,7,1.9,3.5,1.9,6.995-2.389,3.5-2.389,7,.866,3.5.866,7-2.357,3.5-2.357,7-.125,3.5-.125,7,1.512,3.5,1.512,7,1.53,3.5,1.53,7-.307,3.345.25,6.8C-600.2,3253.1-600.261,3253.785-602.737,3256.264Z"/>
      </g>
      <g id="Group_113" data-name="Group 113">
        <path id="Path_106" data-name="Path 106" class="cls-1" d="M-643.372,3621.368c-1.841-1.845,1.888-3.975,1.888-6.582s-1.606-2.606-1.606-5.212,3.075-2.6,3.075-5.208-4.361-2.607-4.361-5.213,1.916-2.6,1.916-5.209,1.024-2.606,1.024-5.213-.721-2.607-.721-5.214-.157-2.607-.157-5.214,2.434-2.607,2.434-5.215-1.287-2.608-1.287-5.215-2.035-2.607-2.035-5.213.894-2.609.894-5.218,1.034-2.61,1.034-5.221-1.74-2.548.1-4.4,1.769.575,4.365.575,2.594-1.533,5.188-1.533,2.594,1.561,5.189,1.561,2.6-2.988,5.191-2.988,2.6,2.825,5.189,2.825,2.6-.226,5.192-.226,2.595-2.319,5.19-2.319,2.595,1.871,5.191,1.871,2.6-.571,5.19-.571,2.6.155,5.192.155,2.6.768,5.191.768,2.6-.88,5.193-.88,2.6-.332,5.193-.332,2.6,2.454,5.192,2.454,2.594-4.213,5.188-4.213,2.6,4.41,5.192,4.41,2.594-1.082,5.189-1.082,2.6.814,5.191.814,2.6-1.673,5.194-1.673,2.6-.711,5.194-.711,2.6,2.076,5.194,2.076,2.6-.5,5.2-.5,2.6.875,5.193.875,2.6-.328,5.2-.328,2.6-.612,5.2-.612,4.32-4.035,6.156-2.194-1.093,3.56-1.093,6.167.983,2.606.983,5.212-2.476,2.6-2.476,5.208,1.168,2.607,1.168,5.213,2.044,2.6,2.044,5.209-1.872,2.606-1.872,5.213,1.31,2.607,1.31,5.214-1.167,2.607-1.167,5.214-.616,2.607-.616,5.215,1.619,2.608,1.619,5.215-1.9,2.607-1.9,5.213-.154,2.609-.154,5.218,3.088,2.61,3.088,5.221,1,4.418-.837,6.269-3.649-2.414-6.245-2.414-2.594,1.726-5.188,1.726-2.594-.837-5.189-.837-2.6.14-5.191.14-2.6,2.753-5.189,2.753-2.6-1.935-5.192-1.935-2.595-.394-5.19-.394-2.595.082-5.191.082-2.6.4-5.19.4-2.6,1.916-5.192,1.916-2.6-1.176-5.191-1.176-2.6.332-5.193.332-2.6-1.062-5.193-1.062-2.6-.844-5.192-.844-2.594.789-5.188.789-2.6-2.9-5.192-2.9-2.594.654-5.189.654-2.6,1.176-5.191,1.176-2.6-1.193-5.194-1.193-2.6,3.419-5.194,3.419-2.6-3.785-5.194-3.785-2.6,1.288-5.2,1.288-2.6-.215-5.193-.215-2.6.261-5.2.261-2.578.424-5.052,1.223C-640.052,3621.558-641.535,3623.209-643.372,3621.368Z"/>
      </g>
      <g id="Group_114" data-name="Group 114">
        <path id="Path_107" data-name="Path 107" class="cls-1" d="M-420.273,3836.718c-3.522,3.4-4.625-.281-9.523-.281s-4.9,2.214-9.8,2.214-4.9-4.49-9.8-4.49-4.9,3.844-9.8,3.844-5.47,1.564-9-1.84c-3.4-3.283,2.048-3.894,2.048-8.624s-4.192-4.729-4.192-9.459,2.618-4.73,2.618-9.46-1.828-4.731-1.828-9.462.112-4.73.112-9.46-2.118-4.73-2.118-9.461,4.65-4.729,4.65-9.458-4.724-4.729-4.724-9.459,5.255-4.73,5.255-9.461-2.738-4.732-2.738-9.464,2.132-4.731,2.132-9.461-3.174-4.734-3.174-9.468-1.734-5.644,1.67-8.934c3.522-3.4,4.382,1.424,9.28,1.424s4.9-2.856,9.8-2.856,4.9,1.679,9.8,1.679,4.9-2.881,9.8-2.881,4.557.478,8.084,3.881c3.4,3.284-1.238,2.948-1.238,7.678s-.116,4.729-.116,9.459.3,4.73.3,9.46,4.97,4.731,4.97,9.462-1.634,4.73-1.634,9.46-2.218,4.73-2.218,9.461.023,4.729.023,9.458-.817,4.729-.817,9.459,1.541,4.73,1.541,9.461-.874,4.732-.874,9.464,4.557,4.731,4.557,9.461-1.248,4.326-.3,8.965C-416.549,3831.845-416.869,3833.428-420.273,3836.718Z"/>
      </g>
      <g id="Group_115" data-name="Group 115">
        <path id="Path_108" data-name="Path 108" class="cls-1" d="M-141.205,3584.794c-2.567,2.558-3.419,1.225-7.043,1.225s-3.624-1.167-7.249-1.167-3.625-.616-7.25-.616-3.622,1.619-7.245,1.619-3.624-1.9-7.248-1.9-3.624-.154-7.248-.154-3.624,3.088-7.248,3.088-3.625-.4-7.25-.4-3.627-2.853-7.253-2.853-3.625,1.726-7.25,1.726-3.628-.837-7.256-.837-4.444,2.794-7.017.238c-2.557-2.54-2.654-3.365-2.654-6.968s1.935-3.6,1.935-7.21.394-3.607.394-7.213-.082-3.6-.082-7.209-.4-3.6-.4-7.21-1.916-3.607-1.916-7.213,1.176-3.6,1.176-7.21-.332-3.607-.332-7.214,1.062-3.6,1.062-7.211.844-3.607.844-7.213-.789-3.606-.789-7.213,2.9-3.607,2.9-7.214-.654-3.607-.654-7.213-1.176-3.607-1.176-7.215,1.193-3.608,1.193-7.216-3.419-3.607-3.419-7.214,3.785-3.608,3.785-7.215-1.288-3.608-1.288-7.216.215-3.609.215-7.217-.261-3.606-.261-7.212-1.247-3.608-1.247-7.215.791-3.608.791-7.216.135-3.607.135-7.215-1.74-3.609-1.74-7.217,3.527-3.607,3.527-7.213-3.02-3.61-3.02-7.22,1.7-3.612,1.7-7.224-1.887-3.087.672-5.637,2.041-2.64,5.665-2.64,3.624,2.057,7.249,2.057,3.625-1.436,7.25-1.436,3.622.087,7.245.087,3.624-1.663,7.248-1.663,3.624,3.653,7.248,3.653,3.624-3.712,7.248-3.712,3.625,4.129,7.25,4.129,3.627-2.151,7.253-2.151,3.625,1.675,7.25,1.675,3.628-2.493,7.256-2.493,4.27-1.237,6.844,1.32c2.556,2.54-1.128,3.19-1.128,6.793s2.245,3.6,2.245,7.21-1.32,3.607-1.32,7.213,2.264,3.6,2.264,7.209-3.6,3.6-3.6,7.21-.379,3.607-.379,7.213-.091,3.6-.091,7.21.234,3.607.234,7.214,3.9,3.6,3.9,7.211-1.284,3.607-1.284,7.213-1.743,3.606-1.743,7.213.018,3.607.018,7.214-.642,3.607-.642,7.213,1.211,3.607,1.211,7.215-.687,3.608-.687,7.216,3.581,3.607,3.581,7.214-.2,3.608-.2,7.215-3.656,3.608-3.656,7.216-.51,3.609-.51,7.217.5,3.606.5,7.212,3.009,3.608,3.009,7.215-3.112,3.608-3.112,7.216,3.451,3.607,3.451,7.215-.98,3.609-.98,7.217,1.3,3.607,1.3,7.213-3.669,3.61-3.669,7.22,2.787,3.318,3.5,6.86C-138.447,3581.084-138.647,3582.244-141.205,3584.794Z"/>
      </g>
      <g id="Group_116" data-name="Group 116">
        <path id="Path_109" data-name="Path 109" class="cls-1" d="M-321.627,3961.656c-3.106-3.053,2.245-6.011,2.245-10.366s-1.924-4.356-1.924-8.711,3.684-4.356,3.684-8.712-5.225-4.358-5.225-8.716,2.3-4.357,2.3-8.713,1.226-4.36,1.226-8.719-3.913-5.794-.807-8.853c3.154-3.106,4.558-.242,8.985-.242s4.428,2.916,8.855,2.916,4.427-1.541,8.854-1.541,4.427-2.44,8.855-2.44,4.429,1.071,8.857,1.071,4.428,1.239,8.856,1.239,4.428.527,8.856.527,4.429.278,8.857.278,4.429-1.837,8.858-1.837,4.429,1.87,8.857,1.87,4.428-3.58,8.856-3.58,4.428,3.385,8.855,3.385,4.428-.271,8.856-.271,4.429-2.778,8.858-2.778,4.431,2.241,8.862,2.241,4.429-.683,8.858-.683,4.432.185,8.864.185,4.914-2.509,8.076.6c3.106,3.053.717,3.552.717,7.907s.4,4.356.4,8.711-2.941,4.356-2.941,8.712,5.048,4.358,5.048,8.716-5.284,4.357-5.284,8.713,1.3,4.36,1.3,8.719,2.884,3.858-.222,6.917c-3.154,3.106-2.652,1.277-7.078,1.277s-4.428.852-8.855.852-4.427-2.487-8.854-2.487-4.427.595-8.855.595-4.429-1.049-8.857-1.049-4.428.394-8.856.394-4.428.734-8.856.734-4.429,3.1-8.857,3.1-4.429-1.782-8.858-1.782-4.429,1.177-8.857,1.177-4.428-2.967-8.856-2.967-4.428,1.4-8.856,1.4-4.427,2.45-8.855,2.45-4.429-2.244-8.858-2.244-4.431,1.57-8.862,1.57-4.429-1.4-8.858-1.4-4.87-1.951-9.123-.7C-316.827,3960.72-318.465,3964.762-321.627,3961.656Z"/>
      </g>
      <g id="Group_117" data-name="Group 117">
        <path id="Path_110" data-name="Path 110" class="cls-1" d="M-287.254,4461.745c-2.441,2.444-4.2-.151-7.654-.151s-3.454,1.652-6.908,1.652-3.453-1.955-6.9-1.955-3.453-2.337-6.907-2.337-3.453,4.2-6.907,4.2-3.454-3.952-6.907-3.952-3.455.272-6.909.272-3.453,3.151-6.906,3.151-3.455.3-6.911.3-3.458-3.993-6.916-3.993-3.116,3.158-5.563.714-1.873-2.1-1.873-5.553,1.737-3.454,1.737-6.908-2.084-3.453-2.084-6.905-.4-3.453-.4-6.907-.831-3.453-.831-6.907,2.7-3.454,2.7-6.907-2.764-3.455-2.764-6.909.971-3.453.971-6.906,3.255-3.455,3.255-6.911-2.481-3.458-2.481-6.916-2.88-5.327-.436-7.773,4.312-.428,7.766-.428,3.454.379,6.908.379,3.453,2.833,6.9,2.833,3.453-1.33,6.907-1.33,3.453.522,6.907.522,3.454-.662,6.907-.662,3.455-2.767,6.909-2.767,3.453,3.668,6.906,3.668,3.455-2.962,6.911-2.962,3.458-.7,6.916-.7,4.448-.118,6.895,2.325-.5,3.433-.5,6.887,2.721,3.454,2.721,6.908-.416,3.453-.416,6.905-2.782,3.453-2.782,6.907,1.225,3.453,1.225,6.907-.083,3.454-.083,6.907,1.476,3.455,1.476,6.909-3.34,3.453-3.34,6.906,2.79,3.455,2.79,6.911-1.156,3.364-.276,6.708C-286.164,4457.853-284.811,4459.3-287.254,4461.745Z"/>
      </g>
      <g id="Group_118" data-name="Group 118">
        <path id="Path_111" data-name="Path 111" class="cls-1" d="M-151.575,4554.423c-1.49,1.5-2.539-.085-4.653-.085s-2.113.94-4.225.94-2.115-1.113-4.23-1.113-2.114-1.329-4.227-1.329-2.115,2.387-4.229,2.387-2.116-2.249-4.231-2.249-2.115.156-4.231.156-2.115,1.792-4.231,1.792-2.115.173-4.23.173-2.115-2.272-4.23-2.272-2.117.087-4.234.087-2.119,1.386-4.237,1.386-2.251.715-3.747-.785-.984-1.635-.984-3.759-.23-2.124-.23-4.249-.473-2.124-.473-4.248,1.537-2.124,1.537-4.247-1.573-2.124-1.573-4.248.553-2.126.553-4.251,1.851-2.127,1.851-4.255-2.841-2.914-1.341-4.423,2.284-.521,4.4-.521,2.113-.041,4.225-.041,2.115.216,4.23.216,2.114,1.611,4.227,1.611,2.115-.756,4.229-.756,2.116.3,4.231.3,2.115-.377,4.231-.377,2.115-1.575,4.231-1.575,2.115,2.087,4.23,2.087,2.115-1.684,4.23-1.684,2.117-.4,4.234-.4,2.119,1.328,4.237,1.328,2.53-1.306,4.026.194,1.461,1.913,1.461,4.037-.237,2.124-.237,4.249-1.583,2.124-1.583,4.248.7,2.124.7,4.247-.047,2.124-.047,4.248.84,2.126.84,4.251-2.4,2.442-1.869,4.5C-152.32,4552.42-150.075,4552.914-151.575,4554.423Z"/>
      </g>
      <g id="Group_119" data-name="Group 119">
        <path id="Path_112" data-name="Path 112" class="cls-1" d="M-362.863,4270.186c-1.564,1.728-3.467-1.189-5.8-1.189s-2.332-1.081-4.665-1.081-2.331,1.6-4.662,1.6-2.332.15-4.665.15-2.333.53-4.666.53-2.333-2.7-4.667-2.7-2.333.345-4.666.345-2.333,1.343-4.666,1.343-2.333,1.37-4.666,1.37-2.335-3.04-4.67-3.04-2.336,3.313-4.673,3.313-2.948-.081-4.519-1.81c-1.73-1.9.87-2.432.87-5s-2.6-2.571-2.6-5.142,2.214-2.572,2.214-5.143-.475-2.572-.475-5.144.079-2.571.079-5.141,1.039-2.573,1.039-5.146-.966-2.574-.966-5.149-2.118-3.308-.39-5.217c1.563-1.728,2.4-.211,4.736-.211s2.332-.96,4.665-.96,2.331,2.633,4.662,2.633,2.332-.745,4.665-.745,2.333-1.543,4.666-1.543,2.333,1.444,4.667,1.444,2.333-.066,4.666-.066,2.333-1.594,4.666-1.594,2.333-.141,4.666-.141,2.335,1.618,4.67,1.618,2.336-.9,4.673-.9,2.279-.446,3.851,1.283c1.729,1.9-.428,1.824-.428,4.4s-.23,2.571-.23,5.142-.163,2.571-.163,5.143.64,2.572.64,5.144-.044,2.57-.044,5.141,2.592,2.573,2.592,5.145-.811,2.235-.062,4.7C-361.545,4266.75-361.135,4268.277-362.863,4270.186Z"/>
      </g>
      <g id="Group_120" data-name="Group 120">
        <path id="Path_113" data-name="Path 113" class="cls-1" d="M-607.737,4021.264c-2.473,2.475-2.762,2.6-6.262,2.6s-3.5-1.022-7-1.022-3.5.176-6.995.176-3.5-2.811-7-2.811-3.5,1.535-7,1.535-3.5,1.467-7,1.467-3.5-1.375-7-1.375-3.5,1.056-7,1.056-3.5,1.387-7,1.387-3.5-3.83-7.007-3.83-3.312,2.815-5.79.339-.631-2.281-.631-5.781-.539-3.5-.539-7-1.986-3.5-1.986-6.995,1.264-3.5,1.264-7,2.415-3.5,2.415-7-3.289-3.5-3.289-7,.151-3.5.151-7-.921-3.5-.921-7,4.544-3.5,4.544-7-4.259-3.5-4.259-7.007-1.333-5.418,1.143-7.9,4.39,2.938,7.89,2.938,3.5-3.854,7-3.854,3.5,4.1,6.995,4.1,3.5-.063,7-.063,3.5-2.461,7-2.461,3.5,1.029,7,1.029,3.5-1.133,7-1.133,3.5,1.323,7,1.323,3.5,1.09,7,1.09,3.5-4.09,7.007-4.09,4.408-.343,6.887,2.133-.365,3.378-.365,6.878.561,3.5.561,7,1.9,3.5,1.9,6.995-2.389,3.5-2.389,7,.866,3.5.866,7-2.357,3.5-2.357,7-.125,3.5-.125,7,1.512,3.5,1.512,7,1.53,3.5,1.53,7-.307,3.345.25,6.8C-605.2,4018.1-605.261,4018.785-607.737,4021.264Z"/>
      </g>
      <g id="Group_121" data-name="Group 121">
        <path id="Path_114" data-name="Path 114" class="cls-1" d="M-648.372,4386.368c-1.841-1.845,1.888-3.975,1.888-6.582s-1.606-2.606-1.606-5.212,3.075-2.6,3.075-5.208-4.361-2.607-4.361-5.213,1.916-2.6,1.916-5.209,1.024-2.606,1.024-5.213-.721-2.607-.721-5.214-.157-2.607-.157-5.214,2.434-2.607,2.434-5.215-1.287-2.608-1.287-5.215-2.035-2.607-2.035-5.213.894-2.609.894-5.218,1.034-2.61,1.034-5.221-1.74-2.548.1-4.4,1.769.575,4.365.575,2.594-1.533,5.188-1.533,2.594,1.561,5.189,1.561,2.6-2.988,5.191-2.988,2.6,2.825,5.189,2.825,2.6-.226,5.192-.226,2.595-2.319,5.19-2.319,2.595,1.871,5.191,1.871,2.6-.571,5.19-.571,2.6.155,5.192.155,2.6.768,5.191.768,2.6-.88,5.193-.88,2.6-.332,5.193-.332,2.6,2.454,5.192,2.454,2.594-4.213,5.188-4.213,2.6,4.41,5.192,4.41,2.594-1.082,5.189-1.082,2.6.814,5.191.814,2.6-1.673,5.194-1.673,2.6-.711,5.194-.711,2.6,2.076,5.194,2.076,2.6-.5,5.2-.5,2.6.875,5.193.875,2.6-.328,5.2-.328,2.6-.612,5.2-.612,4.32-4.035,6.156-2.194-1.093,3.56-1.093,6.167.983,2.606.983,5.212-2.476,2.6-2.476,5.208,1.168,2.607,1.168,5.213,2.044,2.6,2.044,5.209-1.872,2.606-1.872,5.213,1.31,2.607,1.31,5.214-1.167,2.607-1.167,5.214-.616,2.607-.616,5.215,1.619,2.608,1.619,5.215-1.9,2.607-1.9,5.213-.154,2.609-.154,5.218,3.088,2.61,3.088,5.221,1,4.418-.837,6.269-3.649-2.414-6.245-2.414-2.594,1.726-5.188,1.726-2.594-.837-5.189-.837-2.6.14-5.191.14-2.6,2.753-5.189,2.753-2.6-1.935-5.192-1.935-2.595-.394-5.19-.394-2.595.082-5.191.082-2.6.4-5.19.4-2.6,1.916-5.192,1.916-2.6-1.176-5.191-1.176-2.6.332-5.193.332-2.6-1.062-5.193-1.062-2.6-.844-5.192-.844-2.594.789-5.188.789-2.6-2.9-5.192-2.9-2.594.654-5.189.654-2.6,1.176-5.191,1.176-2.6-1.193-5.194-1.193-2.6,3.419-5.194,3.419-2.6-3.785-5.194-3.785-2.6,1.288-5.2,1.288-2.6-.215-5.193-.215-2.6.261-5.2.261-2.578.424-5.052,1.223C-645.052,4386.558-646.535,4388.209-648.372,4386.368Z"/>
      </g>
      <g id="Group_122" data-name="Group 122">
        <path id="Path_115" data-name="Path 115" class="cls-1" d="M-425.273,4601.718c-3.522,3.4-4.625-.281-9.523-.281s-4.9,2.214-9.8,2.214-4.9-4.49-9.8-4.49-4.9,3.844-9.8,3.844-5.47,1.564-9-1.84c-3.4-3.283,2.048-3.894,2.048-8.624s-4.192-4.729-4.192-9.459,2.618-4.73,2.618-9.46-1.828-4.731-1.828-9.462.112-4.73.112-9.46-2.118-4.73-2.118-9.461,4.65-4.729,4.65-9.458-4.724-4.729-4.724-9.459,5.255-4.73,5.255-9.461-2.738-4.732-2.738-9.464,2.132-4.731,2.132-9.461-3.174-4.734-3.174-9.468-1.734-5.644,1.67-8.934c3.522-3.4,4.382,1.424,9.28,1.424s4.9-2.856,9.8-2.856,4.9,1.679,9.8,1.679,4.9-2.881,9.8-2.881,4.557.478,8.084,3.881c3.4,3.284-1.238,2.948-1.238,7.678s-.116,4.729-.116,9.459.3,4.73.3,9.46,4.97,4.731,4.97,9.462-1.634,4.73-1.634,9.46-2.218,4.73-2.218,9.461.023,4.729.023,9.458-.817,4.729-.817,9.459,1.541,4.73,1.541,9.461-.874,4.732-.874,9.464,4.557,4.731,4.557,9.461-1.248,4.326-.3,8.965C-421.549,4596.845-421.869,4598.428-425.273,4601.718Z"/>
      </g>
      <g id="Group_123" data-name="Group 123">
        <path id="Path_116" data-name="Path 116" class="cls-1" d="M-146.205,4349.794c-2.567,2.558-3.419,1.225-7.043,1.225s-3.624-1.167-7.249-1.167-3.625-.616-7.25-.616-3.622,1.619-7.245,1.619-3.624-1.9-7.248-1.9-3.624-.154-7.248-.154-3.624,3.088-7.248,3.088-3.625-.4-7.25-.4-3.627-2.853-7.253-2.853-3.625,1.726-7.25,1.726-3.628-.837-7.256-.837-4.444,2.794-7.017.238c-2.557-2.54-2.654-3.365-2.654-6.968s1.935-3.6,1.935-7.21.394-3.607.394-7.213-.082-3.6-.082-7.209-.4-3.6-.4-7.21-1.916-3.607-1.916-7.213,1.176-3.6,1.176-7.21-.332-3.607-.332-7.214,1.062-3.6,1.062-7.211.844-3.607.844-7.213-.789-3.606-.789-7.213,2.9-3.607,2.9-7.214-.654-3.607-.654-7.213-1.176-3.607-1.176-7.215,1.193-3.608,1.193-7.216-3.419-3.607-3.419-7.214,3.785-3.608,3.785-7.215-1.288-3.608-1.288-7.216.215-3.609.215-7.217-.261-3.606-.261-7.212-1.247-3.608-1.247-7.215.791-3.608.791-7.216.135-3.607.135-7.215-1.74-3.609-1.74-7.217,3.527-3.607,3.527-7.213-3.02-3.61-3.02-7.22,1.7-3.612,1.7-7.224-1.887-3.087.672-5.637,2.041-2.64,5.665-2.64,3.624,2.057,7.249,2.057,3.625-1.436,7.25-1.436,3.622.087,7.245.087,3.624-1.663,7.248-1.663,3.624,3.653,7.248,3.653,3.624-3.712,7.248-3.712,3.625,4.129,7.25,4.129,3.627-2.151,7.253-2.151,3.625,1.675,7.25,1.675,3.628-2.493,7.256-2.493,4.27-1.237,6.844,1.32c2.556,2.54-1.128,3.19-1.128,6.793s2.245,3.6,2.245,7.21-1.32,3.607-1.32,7.213,2.264,3.6,2.264,7.209-3.6,3.6-3.6,7.21-.379,3.607-.379,7.213-.091,3.6-.091,7.21.234,3.607.234,7.214,3.9,3.6,3.9,7.211-1.284,3.607-1.284,7.213-1.743,3.606-1.743,7.213.018,3.607.018,7.214-.642,3.607-.642,7.213,1.211,3.607,1.211,7.215-.687,3.608-.687,7.216,3.581,3.607,3.581,7.214-.2,3.608-.2,7.215-3.656,3.608-3.656,7.216-.51,3.609-.51,7.217.5,3.606.5,7.212,3.009,3.608,3.009,7.215-3.112,3.608-3.112,7.216,3.451,3.607,3.451,7.215-.98,3.609-.98,7.217,1.3,3.607,1.3,7.213-3.669,3.61-3.669,7.22,2.787,3.318,3.5,6.86C-143.447,4346.084-143.647,4347.244-146.205,4349.794Z"/>
      </g>
    </g>
    <g id="Group_82" data-name="Group 82" transform="translate(-412.608 -34.127)">
      <g id="Group_73" data-name="Group 73">
        <path id="Path_67" data-name="Path 67" class="cls-1" d="M797.373,98.656c-3.106-3.053,2.245-6.011,2.245-10.366s-1.924-4.356-1.924-8.711,3.684-4.356,3.684-8.712-5.225-4.358-5.225-8.716,2.3-4.357,2.3-8.713,1.226-4.36,1.226-8.719-3.913-5.794-.807-8.853c3.154-3.106,4.558-.242,8.985-.242s4.428,2.916,8.855,2.916S821.135,37,825.562,37s4.427-2.44,8.855-2.44,4.429,1.071,8.857,1.071,4.428,1.239,8.856,1.239,4.428.527,8.856.527,4.429.278,8.857.278,4.429-1.837,8.858-1.837,4.429,1.87,8.857,1.87,4.428-3.58,8.856-3.58,4.428,3.385,8.855,3.385,4.428-.271,8.856-.271,4.429-2.778,8.858-2.778,4.431,2.241,8.862,2.241,4.429-.683,8.858-.683,4.432.185,8.864.185,4.914-2.509,8.076.6c3.106,3.053.717,3.552.717,7.907s.4,4.356.4,8.711-2.941,4.356-2.941,8.712,5.048,4.358,5.048,8.716-5.284,4.357-5.284,8.713,1.3,4.36,1.3,8.719,2.884,3.858-.222,6.917c-3.154,3.106-2.652,1.277-7.078,1.277s-4.428.852-8.855.852S936.3,94.84,931.87,94.84s-4.427.6-8.855.6-4.429-1.049-8.857-1.049-4.428.394-8.856.394-4.428.734-8.856.734-4.429,3.1-8.857,3.1-4.429-1.782-8.858-1.782-4.429,1.177-8.857,1.177-4.428-2.967-8.856-2.967-4.428,1.4-8.856,1.4-4.427,2.45-8.855,2.45-4.429-2.244-8.858-2.244-4.431,1.57-8.862,1.57-4.429-1.4-8.858-1.4-4.87-1.951-9.123-.7C802.173,97.72,800.535,101.762,797.373,98.656Z"/>
      </g>
      <g id="Group_74" data-name="Group 74">
        <path id="Path_68" data-name="Path 68" class="cls-1" d="M576.061,294.862c-5.624-5.775,4.031-10.923,4.031-18.984s-3.4-8.062-3.4-16.123,6.511-8.062,6.511-16.125-9.232-8.06-9.232-16.12,4.056-8.063,4.056-16.126,2.168-8.063,2.168-16.126-1.526-8.065-1.526-16.129-5.768-10.813-.145-16.593c5.471-5.623,8.323,4.953,16.168,4.953s7.847-2.724,15.694-2.724,7.846-4.311,15.692-4.311,7.845,1.893,15.691,1.893,7.847,2.189,15.694,2.189,7.848.932,15.7.932,7.847.49,15.693.49,7.848-3.246,15.7-3.246,7.848,3.3,15.7,3.3,7.848-6.327,15.7-6.327,7.846,5.982,15.693,5.982,7.849-.478,15.7-.478,7.85-4.91,15.7-4.91,7.851,3.961,15.7,3.961,10.2-6.844,15.675-1.22c5.624,5.775-.339,8.036-.339,16.1s-1.625,8.062-1.625,16.123,1.862,8.062,1.862,16.125.7,8.06.7,16.12-5.2,8.063-5.2,16.126,8.921,8.063,8.921,16.126-9.338,8.065-9.338,16.129,8.694,8.434,3.07,14.215c-5.471,5.623-5.878-2.556-13.723-2.556s-7.847,3.543-15.694,3.543-7.846,1.505-15.692,1.505-7.846-4.4-15.691-4.4-7.847,1.053-15.694,1.053-7.848-1.854-15.7-1.854-7.847.695-15.693.695-7.848,1.3-15.7,1.3-7.848,5.484-15.7,5.484-7.848-3.149-15.7-3.149-7.846,2.08-15.693,2.08-7.849-5.242-15.7-5.242-7.85,2.474-15.7,2.474-7.225,1.978-14.757,4.192C585.99,298.051,581.539,300.486,576.061,294.862Z"/>
      </g>
      <g id="Group_75" data-name="Group 75">
        <path id="Path_69" data-name="Path 69" class="cls-1" d="M831.746,598.745c-2.441,2.444-4.2-.151-7.654-.151s-3.454,1.652-6.908,1.652-3.453-1.955-6.905-1.955-3.453-2.337-6.907-2.337-3.453,4.2-6.907,4.2-3.454-3.952-6.907-3.952-3.455.272-6.909.272-3.453,3.151-6.906,3.151-3.455.3-6.911.3-3.458-3.993-6.916-3.993-3.116,3.158-5.563.714-1.873-2.1-1.873-5.553,1.737-3.454,1.737-6.908-2.084-3.453-2.084-6.905-.4-3.453-.4-6.907-.831-3.453-.831-6.907,2.7-3.454,2.7-6.907-2.764-3.455-2.764-6.909.971-3.453.971-6.906,3.255-3.455,3.255-6.911-2.481-3.458-2.481-6.916-2.88-5.327-.436-7.773,4.312-.428,7.766-.428,3.454.379,6.908.379,3.453,2.833,6.905,2.833,3.453-1.33,6.907-1.33,3.453.522,6.907.522,3.454-.662,6.907-.662,3.455-2.767,6.909-2.767,3.453,3.668,6.906,3.668,3.455-2.962,6.911-2.962,3.458-.7,6.916-.7,4.448-.118,6.9,2.325-.5,3.433-.5,6.887,2.721,3.454,2.721,6.908-.416,3.453-.416,6.905S830,546.174,830,549.628s1.225,3.453,1.225,6.907-.083,3.454-.083,6.907,1.476,3.455,1.476,6.909-3.34,3.453-3.34,6.906,2.79,3.455,2.79,6.911-1.156,3.364-.276,6.708C832.836,594.853,834.189,596.3,831.746,598.745Z"/>
      </g>
      <g id="Group_76" data-name="Group 76">
        <path id="Path_70" data-name="Path 70" class="cls-1" d="M967.425,691.423c-1.49,1.5-2.539-.085-4.653-.085s-2.113.94-4.225.94-2.115-1.113-4.23-1.113-2.114-1.329-4.227-1.329-2.115,2.387-4.229,2.387-2.116-2.249-4.231-2.249-2.115.156-4.231.156-2.115,1.792-4.231,1.792-2.115.173-4.23.173-2.115-2.272-4.23-2.272-2.117.087-4.234.087-2.119,1.386-4.237,1.386-2.251.715-3.747-.785-.984-1.635-.984-3.759-.23-2.124-.23-4.249-.473-2.124-.473-4.248,1.537-2.124,1.537-4.247-1.573-2.124-1.573-4.248.553-2.126.553-4.251,1.851-2.127,1.851-4.255-2.841-2.914-1.341-4.423,2.284-.521,4.4-.521,2.113-.041,4.225-.041,2.115.216,4.23.216,2.114,1.611,4.227,1.611,2.115-.756,4.229-.756,2.116.3,4.231.3,2.115-.377,4.231-.377,2.115-1.575,4.231-1.575,2.115,2.087,4.23,2.087,2.115-1.684,4.23-1.684,2.117-.4,4.234-.4,2.119,1.328,4.237,1.328,2.53-1.306,4.026.194,1.461,1.913,1.461,4.037-.237,2.124-.237,4.249-1.583,2.124-1.583,4.248.7,2.124.7,4.247-.047,2.124-.047,4.248.84,2.126.84,4.251-2.4,2.442-1.869,4.5C966.68,689.42,968.925,689.914,967.425,691.423Z"/>
      </g>
      <g id="Group_77" data-name="Group 77">
        <path id="Path_71" data-name="Path 71" class="cls-1" d="M756.137,407.186c-1.564,1.728-3.467-1.189-5.8-1.189s-2.332-1.081-4.665-1.081-2.331,1.6-4.662,1.6-2.332.15-4.665.15-2.333.53-4.666.53-2.333-2.7-4.667-2.7-2.333.345-4.666.345-2.333,1.343-4.666,1.343-2.333,1.37-4.666,1.37-2.335-3.04-4.67-3.04-2.336,3.313-4.673,3.313-2.948-.081-4.519-1.81c-1.73-1.9.87-2.432.87-5s-2.6-2.571-2.6-5.142,2.214-2.572,2.214-5.143-.475-2.572-.475-5.144.079-2.571.079-5.141,1.039-2.573,1.039-5.146-.966-2.574-.966-5.149-2.118-3.308-.39-5.217c1.563-1.728,2.405-.211,4.736-.211s2.332-.96,4.665-.96,2.331,2.633,4.662,2.633,2.332-.745,4.665-.745,2.333-1.543,4.666-1.543,2.333,1.444,4.667,1.444,2.333-.066,4.666-.066,2.333-1.594,4.666-1.594,2.333-.141,4.666-.141,2.335,1.618,4.67,1.618,2.336-.9,4.673-.9,2.279-.446,3.851,1.283c1.729,1.9-.428,1.824-.428,4.4s-.23,2.571-.23,5.142-.163,2.571-.163,5.143.64,2.572.64,5.144-.044,2.57-.044,5.141,2.592,2.573,2.592,5.145-.811,2.235-.062,4.7C757.455,403.75,757.865,405.277,756.137,407.186Z"/>
      </g>
      <g id="Group_78" data-name="Group 78">
        <path id="Path_72" data-name="Path 72" class="cls-1" d="M511.263,158.264c-2.473,2.475-2.762,2.6-6.262,2.6s-3.5-1.022-7-1.022-3.5.176-7,.176-3.5-2.811-7-2.811-3.5,1.535-7,1.535-3.5,1.467-7,1.467-3.5-1.375-7-1.375-3.5,1.056-7,1.056-3.5,1.387-7,1.387-3.5-3.83-7.007-3.83-3.312,2.815-5.79.339-.631-2.281-.631-5.781-.539-3.5-.539-7-1.986-3.5-1.986-6.995,1.264-3.5,1.264-7,2.415-3.5,2.415-7-3.289-3.5-3.289-7,.151-3.5.151-7-.921-3.5-.921-7,4.544-3.5,4.544-7-4.259-3.5-4.259-7.007-1.333-5.418,1.143-7.9,4.39,2.938,7.89,2.938,3.5-3.854,7-3.854,3.5,4.1,7,4.1,3.5-.063,7-.063,3.5-2.461,7-2.461,3.5,1.029,7,1.029,3.5-1.133,7-1.133,3.5,1.323,7,1.323,3.5,1.09,7,1.09,3.5-4.09,7.007-4.09,4.408-.343,6.887,2.133-.365,3.378-.365,6.878.561,3.5.561,7,1.9,3.5,1.9,6.995-2.389,3.5-2.389,7,.866,3.5.866,7-2.357,3.5-2.357,7-.125,3.5-.125,7,1.512,3.5,1.512,7,1.53,3.5,1.53,7-.307,3.345.25,6.8C513.8,155.1,513.739,155.785,511.263,158.264Z"/>
      </g>
      <g id="Group_79" data-name="Group 79">
        <path id="Path_73" data-name="Path 73" class="cls-1" d="M470.628,523.368c-1.841-1.845,1.888-3.975,1.888-6.582s-1.606-2.606-1.606-5.212,3.075-2.6,3.075-5.208-4.361-2.607-4.361-5.213,1.916-2.605,1.916-5.209,1.024-2.606,1.024-5.213-.721-2.607-.721-5.214-.157-2.607-.157-5.214,2.434-2.607,2.434-5.215-1.287-2.608-1.287-5.215-2.035-2.607-2.035-5.213.894-2.609.894-5.218,1.034-2.61,1.034-5.221-1.74-2.548.1-4.4,1.769.575,4.365.575,2.594-1.533,5.188-1.533,2.594,1.561,5.189,1.561,2.6-2.988,5.191-2.988,2.6,2.825,5.189,2.825,2.6-.226,5.192-.226,2.595-2.319,5.19-2.319,2.6,1.871,5.191,1.871,2.6-.571,5.19-.571,2.6.155,5.192.155,2.6.768,5.191.768,2.6-.88,5.193-.88,2.6-.332,5.193-.332,2.6,2.454,5.192,2.454,2.594-4.213,5.188-4.213,2.6,4.41,5.192,4.41,2.594-1.082,5.189-1.082,2.6.814,5.191.814,2.6-1.673,5.194-1.673,2.6-.711,5.194-.711,2.6,2.076,5.194,2.076,2.6-.5,5.2-.5,2.6.875,5.193.875,2.6-.328,5.2-.328,2.6-.612,5.2-.612,4.32-4.035,6.156-2.194-1.093,3.56-1.093,6.167.983,2.606.983,5.212-2.476,2.6-2.476,5.208,1.168,2.607,1.168,5.213,2.044,2.605,2.044,5.209-1.872,2.606-1.872,5.213,1.31,2.607,1.31,5.214-1.167,2.607-1.167,5.214-.616,2.607-.616,5.215,1.619,2.608,1.619,5.215-1.9,2.607-1.9,5.213-.154,2.609-.154,5.218,3.088,2.61,3.088,5.221,1,4.418-.837,6.269-3.649-2.414-6.245-2.414-2.594,1.726-5.188,1.726-2.594-.837-5.189-.837-2.6.14-5.191.14-2.6,2.753-5.189,2.753-2.6-1.935-5.192-1.935-2.595-.394-5.19-.394-2.595.082-5.191.082-2.6.4-5.19.4-2.6,1.916-5.192,1.916-2.6-1.176-5.191-1.176-2.6.332-5.193.332-2.6-1.062-5.193-1.062-2.6-.844-5.192-.844-2.594.789-5.188.789-2.6-2.9-5.192-2.9-2.594.654-5.189.654-2.6,1.176-5.191,1.176-2.6-1.193-5.194-1.193-2.6,3.419-5.194,3.419-2.6-3.785-5.194-3.785-2.6,1.288-5.2,1.288-2.6-.215-5.193-.215-2.6.261-5.2.261-2.578.424-5.052,1.223C473.948,523.558,472.465,525.209,470.628,523.368Z"/>
      </g>
      <g id="Group_80" data-name="Group 80">
        <path id="Path_74" data-name="Path 74" class="cls-1" d="M693.727,738.718c-3.522,3.4-4.625-.281-9.523-.281s-4.9,2.214-9.8,2.214-4.9-4.49-9.8-4.49-4.9,3.844-9.8,3.844-5.47,1.564-9-1.84c-3.4-3.283,2.048-3.894,2.048-8.624s-4.192-4.729-4.192-9.459,2.618-4.73,2.618-9.46-1.828-4.731-1.828-9.462.112-4.73.112-9.46-2.118-4.73-2.118-9.461,4.65-4.729,4.65-9.458-4.724-4.729-4.724-9.459,5.255-4.73,5.255-9.461-2.738-4.732-2.738-9.464,2.132-4.731,2.132-9.461-3.174-4.734-3.174-9.468-1.734-5.644,1.67-8.934c3.522-3.4,4.382,1.424,9.28,1.424s4.9-2.856,9.8-2.856,4.9,1.679,9.8,1.679,4.9-2.881,9.8-2.881,4.557.478,8.084,3.881c3.4,3.284-1.238,2.948-1.238,7.678s-.116,4.729-.116,9.459.3,4.73.3,9.46,4.97,4.731,4.97,9.462-1.634,4.73-1.634,9.46-2.218,4.73-2.218,9.461.023,4.729.023,9.458-.817,4.729-.817,9.459,1.541,4.73,1.541,9.461-.874,4.732-.874,9.464,4.557,4.731,4.557,9.461-1.248,4.326-.3,8.965C697.451,733.845,697.131,735.428,693.727,738.718Z"/>
      </g>
      <g id="Group_81" data-name="Group 81">
        <path id="Path_75" data-name="Path 75" class="cls-1" d="M972.795,486.794c-2.567,2.558-3.419,1.225-7.043,1.225s-3.624-1.167-7.249-1.167-3.625-.616-7.25-.616-3.622,1.619-7.245,1.619-3.624-1.9-7.248-1.9-3.624-.154-7.248-.154-3.624,3.088-7.248,3.088-3.625-.4-7.25-.4-3.627-2.853-7.253-2.853-3.625,1.726-7.25,1.726-3.628-.837-7.256-.837-4.444,2.794-7.017.238c-2.557-2.54-2.654-3.365-2.654-6.968s1.935-3.605,1.935-7.21.394-3.607.394-7.213-.082-3.6-.082-7.209-.4-3.605-.4-7.21-1.916-3.607-1.916-7.213,1.176-3.605,1.176-7.21-.332-3.607-.332-7.214,1.062-3.6,1.062-7.211.844-3.607.844-7.213-.789-3.606-.789-7.213,2.9-3.607,2.9-7.214-.654-3.607-.654-7.213-1.176-3.607-1.176-7.215,1.193-3.608,1.193-7.216-3.419-3.607-3.419-7.214S888.1,368,888.1,364.39s-1.288-3.608-1.288-7.216.215-3.609.215-7.217-.261-3.606-.261-7.212-1.247-3.608-1.247-7.215.791-3.608.791-7.216.135-3.607.135-7.215-1.74-3.609-1.74-7.217,3.527-3.607,3.527-7.213-3.02-3.61-3.02-7.22,1.7-3.612,1.7-7.224-1.887-3.087.672-5.637,2.041-2.64,5.665-2.64,3.624,2.057,7.249,2.057,3.625-1.436,7.25-1.436,3.622.087,7.245.087,3.624-1.663,7.248-1.663,3.624,3.653,7.248,3.653,3.624-3.712,7.248-3.712,3.625,4.129,7.25,4.129,3.627-2.151,7.253-2.151,3.625,1.675,7.25,1.675,3.628-2.493,7.256-2.493,4.27-1.237,6.844,1.32c2.556,2.54-1.128,3.19-1.128,6.793s2.245,3.605,2.245,7.21-1.32,3.607-1.32,7.213,2.264,3.6,2.264,7.209-3.6,3.605-3.6,7.21-.379,3.607-.379,7.213-.091,3.605-.091,7.21.234,3.607.234,7.214,3.905,3.6,3.905,7.211-1.284,3.607-1.284,7.213-1.743,3.606-1.743,7.213.018,3.607.018,7.214-.642,3.607-.642,7.213,1.211,3.607,1.211,7.215-.687,3.608-.687,7.216,3.581,3.607,3.581,7.214-.2,3.608-.2,7.215-3.656,3.608-3.656,7.216-.51,3.609-.51,7.217.5,3.606.5,7.212,3.009,3.608,3.009,7.215-3.112,3.608-3.112,7.216,3.451,3.607,3.451,7.215-.98,3.609-.98,7.217,1.3,3.607,1.3,7.213-3.669,3.61-3.669,7.22,2.787,3.318,3.5,6.86C975.553,483.084,975.353,484.244,972.795,486.794Z"/>
      </g>
    </g>
  </g>
</svg>
