<svg xmlns="http://www.w3.org/2000/svg" width="244.762" height="138.567" viewBox="0 0 244.762 138.567">
  <g id="Group_128" data-name="Group 128" transform="translate(-570.97 -345.69)">
    <path id="Path_123" data-name="Path 123" d="M573.061,480.862c-5.624-5.775,4.031-10.923,4.031-18.984s-3.4-8.062-3.4-16.123,6.511-8.062,6.511-16.125-9.232-8.06-9.232-16.12,4.056-8.063,4.056-16.126,2.168-8.063,2.168-16.126-1.526-8.065-1.526-16.129-5.768-10.813-.145-16.593c5.471-5.623,8.323,4.953,16.168,4.953s7.847-2.724,15.694-2.724,7.846-4.311,15.692-4.311,7.845,1.893,15.691,1.893,7.847,2.189,15.694,2.189,7.848.932,15.7.932,7.847.49,15.693.49,7.848-3.246,15.7-3.246,7.848,3.3,15.7,3.3,7.848-6.327,15.7-6.327,7.846,5.982,15.693,5.982,7.849-.478,15.7-.478,7.85-4.91,15.7-4.91,7.851,3.961,15.7,3.961,10.2-6.844,15.675-1.22c5.624,5.775-.339,8.036-.339,16.1s-1.625,8.062-1.625,16.123,1.862,8.062,1.862,16.125.7,8.06.7,16.12-5.2,8.063-5.2,16.126,8.921,8.063,8.921,16.126-9.338,8.065-9.338,16.129,8.694,8.434,3.07,14.215c-5.471,5.623-5.878-2.556-13.723-2.556s-7.847,3.543-15.694,3.543-7.846,1.505-15.692,1.505-7.846-4.4-15.691-4.4-7.847,1.053-15.694,1.053-7.848-1.854-15.7-1.854-7.847.695-15.693.695-7.848,1.3-15.7,1.3-7.848,5.484-15.7,5.484-7.848-3.149-15.7-3.149-7.846,2.08-15.693,2.08-7.849-5.242-15.7-5.242-7.85,2.474-15.7,2.474-7.225,1.978-14.757,4.192C582.99,484.051,578.539,486.486,573.061,480.862Z" fill="blue"/>
  </g>
</svg>
